<svg id="Layer_1" data-name="Layer 1" xmlns="http://www.w3.org/2000/svg" width="6.22in" height="5.75in" viewBox="0 0 447.96 414.11"><path d="M50.89,285.49H72.3L50.89,170.35H27.56l-20,115.14H25.7l3.51-23.3H47.74ZM32.61,246.94l5.21-39.69h2.85l5.21,39.69Z" fill="#fff"/><polygon points="381.18 169.06 403.91 169.06 404.1 263.12 447.96 263.14 447.96 286.75 381.18 286.75 381.18 169.06" fill="#fff"/><polygon points="111.73 169.06 85.09 169.06 85.09 286.54 106.04 286.54 106 214.59 123.07 286.54 145.33 286.54 145.33 169.06 125.47 169.06 125.8 216.05 111.73 169.06" fill="#fff"/><polygon points="78.86 176.75 82.93 176.75 82.84 287.63 96.45 287.71 96.45 291.45 78.86 291.45 78.86 176.75" fill="#fff"/><polygon points="106.02 224.77 106.02 241.71 117.35 291.45 127.6 291.45 127.6 287.73 120.99 287.73 106.02 224.77" fill="#fff"/><polygon points="118.95 193.16 123.19 207.34 123.19 176.75 118.95 176.75 118.95 193.16" fill="#fff"/><path d="M189.42,291.45c-20.13,0-36-18-37.49-22.24a6,6,0,0,1-.28-1.67l.44-90.66h4.6l-.41,88.42a3.48,3.48,0,0,0,.21,1.2c1.15,3.22,12.58,19.5,29.41,21.56,13.5,1.65,19.82-4.41,23-7,.17-.14-.72.81-.87,1C204.93,285.46,200,291.45,189.42,291.45Z" fill="#fff"/><path d="M190.25,176.88v92.77l.6-.1a5.25,5.25,0,0,0,3.6-1.78l.51-.61V176.88Z" fill="#fff"/><rect x="374.06" y="176.88" width="4.71" height="114.76" fill="#fff"/><path d="M282.09,208.66v3.56l-18-.1.09-13.81a8.5,8.5,0,0,0-.72-3.54,7.94,7.94,0,0,0-3.39-3.32c-2.6-1.39-9.1-.95-9.1-.95a7.41,7.41,0,0,1,.87-2.29c.66-1.05.91-1.37,1.33-1.48a23,23,0,0,1,7,.58,11.47,11.47,0,0,1,5.15,2.69,12.13,12.13,0,0,1,2.53,5.56c.34,2.92.1,13.08.1,13.08Z" fill="#fff"/><path d="M238,177.11c-6.22,5-11.76,13.36-12.13,17.95a39.77,39.77,0,0,0,6.87,25.25c6.67,9.91,12.91,16,17.84,22,5.13,6.24,7.92,9.71,9.21,14.49A61,61,0,0,1,261.38,271l.71.39c1.28-.49.66.1,1.73-.75l3-2.07s.29-12-4.57-19.62c-2.53-4-7.65-9.3-11.73-13.7-3.9-4.19-9.26-10.27-14.09-16.58-3.3-4.3-5.85-12.32-6.44-15.21a32.78,32.78,0,0,1-.13-13.23C230.83,185.89,238,177.11,238,177.11Z" fill="#fff"/><path d="M251.7,288.07a26.55,26.55,0,0,1-22.65-15.17,19.17,19.17,0,0,1-1-5.16l-.21-12.3h-4.34l.12,13.7c0,.32.09,1.39.11,1.63a18.17,18.17,0,0,0,2.18,6c3.2,5.55,12.35,14.14,24.27,14.85,3.47.2,8.7-.51,14.9-2.86a49.34,49.34,0,0,0,12.24-7.41S265.56,289.06,251.7,288.07Z" fill="#fff"/><path d="M328,291.65c-21.89,0-28.9-14.72-30.67-19.62a11.06,11.06,0,0,1-.59-2.83l.4-66a98.7,98.7,0,0,1,.79-10c1.08-4,8.51-10.56,8.51-10.56s-3.92,6.58-4.36,9a65.13,65.13,0,0,0-.69,10.45l0,63.32a8.56,8.56,0,0,0,.32,2.36c1.29,4.42,8.16,19.43,24.14,20.5,7.83.53,16.15-.5,18.6-1.19s8.54-4.07,8.54-4.07S345.12,291.65,328,291.65Z" fill="#fff"/><path d="M325.84,189.25a10.07,10.07,0,0,1,1.51-2.32c.61-.56,5.81-1.36,8.17-1.09a7.47,7.47,0,0,1,6.21,3.77,10.1,10.1,0,0,1,1.39,4.75v73.81L343,269c-.7.74-.93.67-1.88,1l-2.21.54-.15-75.29a9.39,9.39,0,0,0-.63-2.59,8.57,8.57,0,0,0-1.37-1.68c-1.14-1.06-4.51-2-7.14-2.1A19.73,19.73,0,0,0,325.84,189.25Z" fill="#fff"/><polygon points="19.09 176.75 0 286.54 4.02 286.54 22.95 176.75 19.09 176.75" fill="#fff"/><polygon points="36.94 245.74 41.54 245.74 36.82 216.42 35.11 229.41 36.94 245.74" fill="#fff"/><polygon points="31.89 265.56 31.32 269.47 42.77 269.4 45.85 291.45 66.06 291.44 66.06 286.96 49.26 287 46.34 265.56 31.89 265.56" fill="#fff"/><path d="M160.12,169.21h20.14v92.41a4.48,4.48,0,0,0,1.07,2.94c1.52,1.74,4.62,4.93,8.9,4.53,3.92-.36,5.45-2.54,7.34-5a6.71,6.71,0,0,0,1-4.22V169.21h20.11v91.08a14.37,14.37,0,0,1-2.45,8.06c-4.18,6.19-13.55,17.3-26.85,17.14s-22.51-10.83-26.74-16.87a14.28,14.28,0,0,1-2.56-8.22Z" fill="#fff"/><path d="M271.22,205.88h16.69s6.21-35-24.57-36.67c-18.56-1-31.25,14.49-31.63,26.74-.54,17.26,18.73,35,24.5,40.73s13.24,12.71,13.41,23.76-9.21,10.48-10.08,10.48h0c-6.65,0-11.79-4.66-11.79-10.89V249.8l-16.55.07v11.78c0,5.9,1.48,10.19,5,14.24,4.26,4.86,11.74,9.6,23.33,9.6,11.16,0,27.91-10.2,28.37-26.66.43-15.65-6.73-25.46-11.79-30-11.53-10.35-20.38-19.14-23.42-24.57s-3.25-9-3.23-10.1c.06-4.6,4-9.4,11.76-9.23C273.18,185.18,271.22,205.88,271.22,205.88Z" fill="#fff"/><path d="M366.16,263.12V193.35a10.14,10.14,0,0,0-1.41-5.16c-3.4-5.83-13.07-19.23-30-19.13-16.74.1-26.38,12.6-29.88,18.25a10,10,0,0,0-1.52,5.34v72.21a10,10,0,0,0,1.29,4.95c3,5.34,11.78,16.94,30.94,16.94,16.89,0,26.05-12.94,29.25-18.61A10.11,10.11,0,0,0,366.16,263.12ZM324,260.7V195.2a10,10,0,0,1,4.46-8.47,11.44,11.44,0,0,1,6.1-1.85,10.84,10.84,0,0,1,6.12,1.78,10,10,0,0,1,4.44,8.46V261a10,10,0,0,1-4.5,8.5,11.16,11.16,0,0,1-6.06,1.76h-.25A10.58,10.58,0,0,1,324,260.7Z" fill="#fff"/><text transform="matrix(0.98, -0.15, 0.15, 0.99, 72.34, 386.6)" font-size="76.38" fill="#fff" font-family="Damion">Ointment</text><rect x="378.77" y="287.69" width="30.92" height="3.96" fill="#fff"/><polygon points="237.75 115.32 237.75 134 247.46 137.84 247.46 115.32 237.75 115.32" fill="#fff"/><path d="M154.41,47.71s-2,5-2.1,6.62a34,34,0,0,0,0,6.15c.2.65,23.45,46.47,23.45,46.47l2.84-2.16s-22.93-44.38-23-45.12a51.85,51.85,0,0,1,0-6.48c.2-1.28,1.32-5.48,1.32-5.48Z" fill="#fff"/><path d="M167.28,36.18c-1.83,0-6.82,3-7.59,4s-2,2.39-1.7,3.45,24.67,58.6,24.67,58.6l3.08-1.88s-24.11-55.81-24.32-57-.15-1.44.08-1.79a20.41,20.41,0,0,1,2.64-3,24.59,24.59,0,0,1,3.13-2.12Z" fill="#fff"/><path d="M180.65,33.11s-5.91.21-6.77.38S170,35.2,170,36s21.31,62.73,21.31,62.73l2.69-.3S173.7,37.58,173.7,36.77a1.73,1.73,0,0,1,1.24-1.93c1-.3,5.7-1,5.7-1Z" fill="#fff"/><path d="M189.47,34.85s-3.63-.07-4.36.31a2.35,2.35,0,0,0-1,2.06c0,.59,16,60.54,16,60.54l3.19-.38s-15.71-59.52-15.78-60.21-.23-1.46.3-1.63a13,13,0,0,1,1.69-.31Z" fill="#fff"/><path d="M199.36,41.58H197a3,3,0,0,0-.61,1.5c0,.7,12.63,54,12.63,54h2.62s-12.11-53.14-12.15-53.84S199.36,41.58,199.36,41.58Z" fill="#fff"/><path d="M206.31,120.45l.49.64c1.13,1.33,1.51,1.82,2.89,3.27l33.18-16.2-5-1.8-.16-.07Z" fill="#fff"/><polygon points="211.66 128.21 215.14 132.06 247.46 115.33 242.11 112.86 211.66 128.21" fill="#fff"/><polygon points="172.86 117.58 172.28 122.83 209.96 124.28 206.58 120.37 172.86 117.58" fill="#fff"/><path d="M246,112.77l-1.66-16.14L249,93.92l1.25-.12,1.63,15.93.66-.06s1.24-8.28,1.47-10.54.67-7,.67-7l6.45-3.44-.46-4.42s-11.61,4.6-14.79,5.28S234,90.79,232.38,90.92c-.79.07-19,.35-19,.35l.84,5,22.14,0,1.16,10,4.86,1.78-.3,4.73,5.2,2.49.15,0" fill="#fff"/><polygon points="200.25 123.45 200.25 142.14 209.96 145.97 209.96 123.45 200.25 123.45" fill="#fff" stroke="#fff" stroke-miterlimit="10" stroke-width="0.5"/><path d="M202.81,131.07c-1-2.54-2.75-7-4.05-10.39-4.56.93-12,2.22-12,2.22s-10.85,1.8-14.07,2.71-11.59,4.45-12.73,5l-7,3.45V135l12.66,3.76a6.65,6.65,0,0,0,1.78.25h2.05a5,5,0,0,0,.95-.09c2.38-.49,13.2-2.7,15.41-3.08,2.47-.44,13.47-2.74,13.47-2.74S202.65,131.48,202.81,131.07Z" fill="#fff"/><path d="M191.1,104.84c.63.09,4.76.55,7.19.58a22.43,22.43,0,0,0,5.39-.27c.93-.31.68-.68.55-.91s-1.22-.5-2.89-.72-4-.44-5.34-.62a32.39,32.39,0,0,1-3.45-.6,2.15,2.15,0,0,1-.77-.33,7.88,7.88,0,0,1-.22.88,4.27,4.27,0,0,0-.45.91A7.93,7.93,0,0,0,191.1,104.84Z" fill="#fff"/><path d="M197.82,118.33c1.17,0,7.27.14,8.55,0s2.65-.4,3.86-.49a6.26,6.26,0,0,0,2.88-1c1.21-.78,4.45-.88,9.7-5.71.85-1.47,7.33-1.76,9.43-3.77,0,0,1.73-1.09,1.78-2,0-.71-.13-3.5-.2-4.3a1.08,1.08,0,0,0-.19-.51c-.22-.29-.81,0-.83,0-1.67,1.16-1.24,2.67-11.08,3.42-4.19,4.06-10.1,4.71-9.52,5,0,0-.61.35-.48,1.56a15.89,15.89,0,0,1-.06,3.07c-.06.84-.18,2.7-.63,3.14a8.2,8.2,0,0,1-3.23,1.22C207,117.93,197.82,118.33,197.82,118.33Z" fill="#fff" stroke="#fff" stroke-miterlimit="10" stroke-width="0.5"/><path d="M180.24,106c-.55.39-1.53,1.26-1.61,2.06a34.38,34.38,0,0,0,.35,5c0,1,.27,3.41.8,3.94s3.06.64,4.86.71,6.54.73,8.18.75c1,0,4.28-.1,5-.12" fill="none" stroke="#fff" stroke-miterlimit="10" stroke-width="0.5"/><path d="M233.63,100.5c-1-2.81-11.66-3.77-21.81-1.39-1.48.27-5.55-.22-9.57-.07-6,.23-11.49.84-10.33,3.3" fill="none" stroke="#fff" stroke-miterlimit="10" stroke-width="0.5"/><path d="M222.07,104.36a11.26,11.26,0,0,0-3.07-1,18.82,18.82,0,0,0-3.27-.37,28.25,28.25,0,0,0-3.3.21l-3.3.35,3.29-.48a30.41,30.41,0,0,1,3.31-.33,18.72,18.72,0,0,1,3.34.25,11.67,11.67,0,0,1,3.23,1Z" fill="#fff"/><path d="M198,105.17c-2,0-6.79-.34-7.22-.64-4.5-1.27-17.21,2.35-7.69,3.07,5.72,1.21,6.44,1.61,13.61.63,5.6-.65,9.19-2.19,15.46.61" fill="none" stroke="#fff" stroke-miterlimit="10" stroke-width="0.5"/><path d="M11.88,40.71l1.35-.56c-1.17-4.07-1.76-6.1-2.93-10.16l-1.39.17-.23-.8,2.23-.65c.32-.09.74-.23,1.28-.43s1-.36,1.31-.45a6.44,6.44,0,0,1,3.79-.22A2.93,2.93,0,0,1,19,29.76,3.83,3.83,0,0,1,19,32.08a3.46,3.46,0,0,1-1.47,1.82,2.94,2.94,0,0,1,1.27.68c.44.36,1,.9,1.67,1.58.51.51.91.89,1.17,1.12a1,1,0,0,0,.66.33l.7,0c.09.32.13.48.22.81L20.85,39c-.18,0-.43-.08-.76-.39s-.79-.82-1.38-1.5-1.19-1.34-1.63-1.76-.89-.74-1.16-.72a8,8,0,0,0-2.15.59L15,39.63l1.71-.31.23.8-4.84,1.39Zm5.18-8.07a3.07,3.07,0,0,0,.05-2.22A2.56,2.56,0,0,0,16,28.77a3.19,3.19,0,0,0-2.38,0,10.41,10.41,0,0,0-1.07.37l-.44.16,1.45,5.07c.17,0,.52-.13,1.05-.29l1-.27A2.28,2.28,0,0,0,17.06,32.64Z" fill="#fff"/><path d="M23.84,26.22l-1.45.18-.23-.82c3.49-.94,5.23-1.4,8.72-2.3.36,1,.54,1.5.89,2.5l-1,.25c-.36-.59-.54-.89-.91-1.47l-4.27,1c.5,1.85.74,2.78,1.23,4.63l2.83-.79c-.05-.57-.07-.86-.12-1.43l.94-.24,1,3.78-.93.24c-.25-.54-.37-.81-.61-1.35l-2.85.7L28.39,36c1.88-.57,2.83-.85,4.71-1.4.15-.93.22-1.39.36-2.31l1.08,0c.09,1.2.14,1.8.24,3-3.74,1-5.61,1.45-9.34,2.46L25.22,37l1.35-.53Z" fill="#fff"/><path d="M36.56,22.94l-1.44.15c-.08-.33-.12-.5-.21-.83L39.84,21l.2.83-1.65.61c1,4.11,1.52,6.16,2.53,10.27l4.33-1.21c.13-1.2.2-1.81.33-3l1.08-.1c.11,1.56.17,2.34.29,3.89-3.6.86-5.4,1.3-9,2.2l-.2-.81,1.36-.51Z" fill="#fff"/><path d="M49.26,19.9l-1.64.17c-.08-.33-.12-.5-.19-.83l5.06-1.16.19.83-1.56.56,2.35,10.31,1.61-.17.18.79-5,1.14c-.07-.33-.11-.49-.19-.81l1.52-.53C50.69,26.08,50.21,24,49.26,19.9Z" fill="#fff"/><path d="M57.44,18.06,56,18.17c-.08-.33-.11-.49-.19-.83,3.52-.77,5.28-1.15,8.8-1.87L65.37,18l-1,.2c-.34-.61-.5-.91-.84-1.51l-4.3.81c.41,1.87.61,2.81,1,4.68l2.85-.66,0-1.43,1-.2.8,3.83-.94.2c-.22-.55-.33-.83-.54-1.38l-2.87.56c.42,2,.64,3,1.06,4.95,1.91-.48,2.86-.72,4.76-1.18l.47-2.29,1.07.1.1,3c-3.77.77-5.65,1.17-9.42,2l-.18-.81,1.38-.48C58.79,24.26,58.34,22.2,57.44,18.06Z" fill="#fff"/><path d="M67.52,14.87c1.84-.38,2.76-.56,4.6-.92.07.33.1.5.16.83l-1.5.5c1.77,2.91,2.64,4.36,4.38,7.27l1,1.91c.06-.87.1-1.3.16-2.18.42-3.31.64-5,1.08-8.28L76,14.06c-.06-.34-.09-.51-.16-.84l3.87-.73.15.84-1.07.41C78,18.65,77.66,21.1,76.93,26l-1.48.28c-2.64-4.25-4-6.38-6.67-10.61H67.69C67.62,15.37,67.58,15.2,67.52,14.87Z" fill="#fff"/><path d="M83.38,12.89,81.93,13c-.06-.33-.09-.5-.16-.83,3.54-.65,5.3-1,8.84-1.56l.68,2.55-1,.17-.78-1.54-4.32.65c.33,1.89.5,2.84.84,4.72l2.87-.55V15.13l1-.17.66,3.86-1,.16c-.19-.56-.29-.84-.49-1.4L86.21,18c.36,2,.53,3,.89,5l4.79-1,.55-2.26,1.06.13v3c-3.79.64-5.69,1-9.47,1.66l-.15-.81,1.38-.43C84.51,19.14,84.14,17.06,83.38,12.89Z" fill="#fff"/><path d="M99.26,22a14,14,0,0,1-1.6-.15,4.13,4.13,0,0,0-.81-.08c-.14-1.22-.21-1.83-.36-3.05l1.1-.18.65,2.13a2.53,2.53,0,0,0,1,.33,4.94,4.94,0,0,0,1.48,0,3.05,3.05,0,0,0,1.89-.88,2,2,0,0,0,.43-1.68,1.79,1.79,0,0,0-.55-1.07,3.21,3.21,0,0,0-1.1-.65c-.45-.16-1-.34-1.81-.53a13.83,13.83,0,0,1-1.81-.58,4.41,4.41,0,0,1-1.44-1,2.93,2.93,0,0,1-.81-1.67,2.85,2.85,0,0,1,.24-1.73,3.41,3.41,0,0,1,1.29-1.39A5.79,5.79,0,0,1,99.27,9a7.43,7.43,0,0,1,1.43-.1c.43,0,.91,0,1.45.1a4,4,0,0,0,.62.06c.13,1.13.19,1.7.33,2.84l-1.06.16-.67-2a1.67,1.67,0,0,0-.77-.21,4.52,4.52,0,0,0-1.21,0,2.88,2.88,0,0,0-1.74.77,1.71,1.71,0,0,0-.39,1.51,1.79,1.79,0,0,0,.55,1.07,3.43,3.43,0,0,0,1,.62c.4.15,1,.35,1.9.59a20.68,20.68,0,0,1,2,.66,4.2,4.2,0,0,1,1.38.91,2.72,2.72,0,0,1,.76,1.55,3.22,3.22,0,0,1-.25,1.79,3.82,3.82,0,0,1-1.33,1.59,5.5,5.5,0,0,1-2.42.92A7.77,7.77,0,0,1,99.26,22Z" fill="#fff"/><path d="M114.13,8l-1.64,0c0-.33-.07-.5-.12-.84,2-.29,3.08-.43,5.13-.7,0,.34.06.51.11.85L116,7.75c.56,4.2.84,6.29,1.41,10.48l1.62,0,.1.81c-2,.26-3,.4-5,.68,0-.33-.07-.5-.11-.83l1.55-.38C115,14.3,114.71,12.2,114.13,8Z" fill="#fff"/><path d="M125.2,6.42l-3,.48c-.06,1.44-.1,2.16-.16,3.6l-1.15.14c-.11-1.82-.17-2.73-.28-4.55,4.35-.56,6.53-.82,10.88-1.31.29,1.8.44,2.7.72,4.5l-1.09.12c-.39-1.38-.59-2.07-1-3.46l-3,.25,1.27,10.65,2.46-.11.1.82c-2.63.31-3.94.46-6.56.79,0-.33-.06-.49-.11-.82l2.22-.45Z" fill="#fff"/><path d="M138.28,16.12a5.2,5.2,0,0,1-2.27-2A8,8,0,0,1,135,10.74a6.74,6.74,0,0,1,.45-3.44,5.8,5.8,0,0,1,2-2.49,6.36,6.36,0,0,1,3.13-1.14,15.57,15.57,0,0,1,3.28.09l.58.05c.05,1.22.07,1.84.12,3.06L143.36,7c-.26-.84-.38-1.26-.64-2.1a2.23,2.23,0,0,0-.88-.27,6.86,6.86,0,0,0-1.5,0,3.34,3.34,0,0,0-1.92.82,4,4,0,0,0-1.18,2,7.45,7.45,0,0,0-.19,2.93,9.18,9.18,0,0,0,.73,2.84,4.61,4.61,0,0,0,1.53,1.93,3.16,3.16,0,0,0,2.25.55,5.18,5.18,0,0,0,1.39-.29,2.36,2.36,0,0,0,.79-.52l.57-1.73,1.1,0c-.08,1-.11,1.47-.19,2.44a5,5,0,0,0-1,.34c-.4.17-.79.3-1.17.42a8.37,8.37,0,0,1-1.42.25A6.2,6.2,0,0,1,138.28,16.12Z" fill="#fff"/><path d="M149.08,4.06,147.68,4c0-.33-.05-.5-.08-.84l4.76-.42c0,.34,0,.51.07.85L151,3.9c.15,1.82.23,2.73.39,4.56,2.45-.22,3.67-.32,6.12-.51l-.35-4.56-1.44-.09c0-.34,0-.51-.07-.84,1.88-.15,2.82-.23,4.7-.36,0,.34,0,.51.06.84L159,3.25c.31,4.22.47,6.33.79,10.54l1.37.07c0,.33,0,.5.06.83l-4.63.36c0-.33,0-.5-.07-.83l1.41-.28c-.16-2-.23-3-.39-4.94-2.44.19-3.67.29-6.11.51.17,2,.26,3,.43,4.92l1.51.05c0,.33,0,.49.07.83l-4.73.41c0-.33-.05-.5-.08-.83L150,14.6C149.64,10.38,149.45,8.28,149.08,4.06Z" fill="#fff"/><path d="M167.45,12.26a2.6,2.6,0,0,1,.48,1.48,5.74,5.74,0,0,1-.19,1.89,5.87,5.87,0,0,1-.67,1.58,3.24,3.24,0,0,1-.85.95h0l-.61-.37v-.18a3,3,0,0,0,.61-1.23,4.57,4.57,0,0,0,.24-1.74.8.8,0,0,0-.12-.41,1.74,1.74,0,0,0-.33-.36,2.49,2.49,0,0,1-.39-.45,1.21,1.21,0,0,1-.16-.59,1,1,0,0,1,.23-.73,1,1,0,0,1,.7-.32h.09A1.14,1.14,0,0,1,167.45,12.26Z" fill="#fff"/><path d="M178.28,2.05l-1.45-.13c0-.34,0-.51,0-.85L179.16,1c.39,0,.9-.07,1.5-.14s1-.11,1.25-.12a6.09,6.09,0,0,1,3.49.58,2.45,2.45,0,0,1,1.13,2.1A3.13,3.13,0,0,1,184,6.65a3.83,3.83,0,0,1,2.66.66,2.66,2.66,0,0,1,1,2.14,3.54,3.54,0,0,1-1.13,2.85,6.22,6.22,0,0,1-4,1.25c-.41,0-.82,0-1.19,0-.87,0-1.43,0-1.61,0l-2.29.11c0-.33,0-.5,0-.83l1.42-.24C178.59,8.39,178.48,6.28,178.28,2.05Zm3.06,4.4.95,0a2.4,2.4,0,0,0,1.82-.74,2.6,2.6,0,0,0,.56-1.91,2.23,2.23,0,0,0-.7-1.71,3.21,3.21,0,0,0-2.18-.46,11.86,11.86,0,0,0-1.3.12l-.36.05c.08,1.89.13,2.83.21,4.72C180.51,6.49,180.84,6.48,181.34,6.45Zm1.09,6.18a3.75,3.75,0,0,0,2.5-.81,2.58,2.58,0,0,0,.71-2.06,2.41,2.41,0,0,0-.76-1.87,3.34,3.34,0,0,0-2.25-.5c-1.18.05-1.93.09-2.24.13.1,2,.14,3,.24,5.06A6.78,6.78,0,0,0,182.43,12.63Z" fill="#fff"/><path d="M192.79,11.87a6,6,0,0,1-1.33-4.1c-.08-2.49-.12-3.74-.19-6.23L190,1.37c0-.34,0-.51,0-.85l4.68-.14c0,.34,0,.51,0,.85l-1.49.26.18,6.41a5.31,5.31,0,0,0,.94,3.31,3,3,0,0,0,2.44,1A2.74,2.74,0,0,0,199.1,11a5.38,5.38,0,0,0,.73-3.17c-.05-2.61-.08-3.91-.13-6.51l-1.48-.19,0-.85,4.1-.08c0,.34,0,.51,0,.85L201,1.3c.05,2.57.07,3.86.12,6.44a5.49,5.49,0,0,1-1.21,4,4.6,4.6,0,0,1-3.37,1.39A4.81,4.81,0,0,1,192.79,11.87Z" fill="#fff"/><path d="M205.09,12l1.44-.19c-.05-4.23-.07-6.34-.11-10.57L205.05,1c0-.33,0-.5,0-.83l2.3,0c.32,0,.77,0,1.33-.08S209.71,0,210,0a6.29,6.29,0,0,1,3.68.8,2.93,2.93,0,0,1,1.1,2.54,3.91,3.91,0,0,1-.7,2.21,3.35,3.35,0,0,1-1.88,1.36,2.9,2.9,0,0,1,1,1c.32.47.71,1.13,1.18,2,.35.63.63,1.1.82,1.39s.37.46.54.49l.67.18v.83H214.1c-.19,0-.39-.2-.62-.59s-.54-1-.92-1.81-.78-1.6-1.09-2.13-.67-1-.92-1a7.71,7.71,0,0,0-2.21,0c0,1.82,0,2.73,0,4.56l1.71.15v.84l-5,0Zm7.07-6.4a3,3,0,0,0,.64-2.12,2.57,2.57,0,0,0-.66-1.9,3.15,3.15,0,0,0-2.27-.64,10.52,10.52,0,0,0-1.12.07,4.13,4.13,0,0,1-.46,0c0,2.11,0,3.16,0,5.27h2.08A2.27,2.27,0,0,0,212.16,5.58Z" fill="#fff"/><path d="M220.36,1.2,219,1V.14l3.27,0c2.3,3.34,3.44,5,5.69,8.38l.94,1.82c.07-3.62.11-5.42.18-9l-1.52-.23c0-.34,0-.51,0-.85l4.15.08c0,.34,0,.51,0,.85l-1.41.17L230,12.93l-1.37,0c-2.28-3.44-3.43-5.15-5.77-8.58-.52-.9-.79-1.35-1.32-2.25,0,3.89-.06,5.83-.09,9.72l1.64.19c0,.33,0,.5,0,.83l-4.2,0v-.83l1.38-.18C220.31,7.54,220.32,5.43,220.36,1.2Z" fill="#fff"/><path d="M236.25,1.51l-1.63-.25c0-.34,0-.51,0-.85l5.16.16c0,.34,0,.51,0,.85l-1.64.15c-.14,4.23-.21,6.34-.34,10.57l1.6.24c0,.32,0,.49,0,.81-2-.07-3-.1-5.06-.15,0-.34,0-.5,0-.84l1.6-.12C236.06,7.85,236.12,5.74,236.25,1.51Z" fill="#fff"/><path d="M244.59,1.81l-1.39-.26,0-.85,3.27.13c2.19,3.42,3.27,5.14,5.41,8.57.35.74.53,1.11.87,1.85.2-3.61.29-5.42.49-9l-1.52-.28,0-.85,4.15.22-.05.85-1.42.12c-.25,4.63-.38,6.94-.63,11.56l-1.36-.07C250.31,10.26,249.22,8.5,247,5c-.49-.92-.74-1.38-1.24-2.3-.17,3.88-.25,5.83-.42,9.71l1.63.24c0,.34,0,.5,0,.84l-4.19-.18c0-.33,0-.5,0-.83l1.38-.13C244.33,8.14,244.42,6,244.59,1.81Z" fill="#fff"/><path d="M260.75,13.63a5.39,5.39,0,0,1-1.92-2.38,7.13,7.13,0,0,1-.51-3.3,7,7,0,0,1,1.06-3.52,5.54,5.54,0,0,1,2.5-2.12,7.33,7.33,0,0,1,3.48-.54,18,18,0,0,1,4.05.82c-.15,1.17-.23,1.75-.38,2.92l-1.24-.09c-.11-.83-.16-1.24-.27-2.07a2.74,2.74,0,0,0-.8-.41,5.75,5.75,0,0,0-1.56-.28,4.11,4.11,0,0,0-2.3.46,4,4,0,0,0-1.65,1.71,6.93,6.93,0,0,0-.73,2.88,8.89,8.89,0,0,0,.26,2.92A4.66,4.66,0,0,0,262,12.81a3.31,3.31,0,0,0,2.16.94,6,6,0,0,0,1.59-.09,3.05,3.05,0,0,0,1.17-.43l.28-3.78L265,9.12c0-.4,0-.6.07-1l5.08.37c0,.4-.05.6-.08,1l-1,.08c-.13,1.82-.2,2.73-.34,4.56a6.14,6.14,0,0,0-1.28.19,15.6,15.6,0,0,1-1.72.3,8.59,8.59,0,0,1-1.77,0A6.14,6.14,0,0,1,260.75,13.63Z" fill="#fff"/><path d="M290.47,10.77l-1.42,0a6.33,6.33,0,0,1-.57,2.14,4.45,4.45,0,0,1-1.17,1.59,5.16,5.16,0,0,0,1,.89,2.82,2.82,0,0,0,1.13.41c0,.3-.05.45-.08.74a1.75,1.75,0,0,1-.58.08,4.69,4.69,0,0,1-.68,0,2.63,2.63,0,0,1-1.07-.33,5.1,5.1,0,0,1-1-.86,4.32,4.32,0,0,1-1.57.63,6.53,6.53,0,0,1-1.7.08A5.68,5.68,0,0,1,279.46,15a2.87,2.87,0,0,1-1-2.55,2.68,2.68,0,0,1,.88-1.8,5.32,5.32,0,0,1,2-1.08,5.79,5.79,0,0,1-1.2-3.62,2.69,2.69,0,0,1,.59-1.44,3.2,3.2,0,0,1,1.35-1,3.65,3.65,0,0,1,1.81-.24,4,4,0,0,1,1.7.5,2.53,2.53,0,0,1,1,1,2.12,2.12,0,0,1,.24,1.16,3.49,3.49,0,0,1-.53,1.6,3.85,3.85,0,0,1-1.07,1.06c-.43.27-1,.6-1.78,1,.36.51.83,1.15,1.42,1.93s1.06,1.39,1.43,1.85l.39.44a3.55,3.55,0,0,0,.75-1.19,6,6,0,0,0,.34-1.45c0-.21,0-.37,0-.47l-1.39-.33c0-.37.06-.56.09-.93l4.1.42Zm-6.31,4.39a3.33,3.33,0,0,0,1.12-.41c-.42-.45-.87-1-1.36-1.64s-1.1-1.48-1.83-2.49l-.27-.37a3.06,3.06,0,0,0-1.68,2.2,2.25,2.25,0,0,0,.63,1.86,3.31,3.31,0,0,0,2.17.92A4.58,4.58,0,0,0,284.16,15.16Zm-2.05-7.72A7.31,7.31,0,0,0,283,8.87a7,7,0,0,0,1.66-1.37,3.2,3.2,0,0,0,.6-1.65A2,2,0,0,0,285,4.67,1.35,1.35,0,0,0,283.8,4a1.59,1.59,0,0,0-1.29.44,2,2,0,0,0-.63,1.37A3.22,3.22,0,0,0,282.11,7.44Z" fill="#fff"/><path d="M301.2,6.34,299.6,6l.1-.84,5.13.61-.1.85h-1.65c-.51,4.2-.76,6.3-1.28,10.5l1.58.38-.1.81-5-.61.1-.82H300Z" fill="#fff"/><path d="M306.66,17.85h1.45c.55-4.19.82-6.29,1.37-10.48L308.15,7c0-.33.06-.49.11-.82l2.28.29c.33,0,.77.08,1.34.11s1,.07,1.37.12A6.36,6.36,0,0,1,316.79,8a3,3,0,0,1,.73,2.67,3.76,3.76,0,0,1-1,2.09,3.39,3.39,0,0,1-2.06,1.09,2.93,2.93,0,0,1,.89,1.13c.25.51.54,1.22.89,2.1.26.68.47,1.18.62,1.5s.3.51.47.57l.64.26c0,.33-.07.5-.12.83l-2.36-.34c-.18,0-.36-.25-.53-.67a19.86,19.86,0,0,1-.66-1.92c-.29-.94-.56-1.7-.79-2.26s-.52-1-.77-1.13a7.61,7.61,0,0,0-2.19-.31l-.6,4.52,1.68.39-.12.83-4.95-.66Zm7.91-5.34a3.13,3.13,0,0,0,.94-2,2.6,2.6,0,0,0-.39-2,3.22,3.22,0,0,0-2.17-1,10.54,10.54,0,0,0-1.12-.08c-.24,0-.39,0-.46,0l-.7,5.22c.17,0,.53.09,1.07.16l1,.13A2.26,2.26,0,0,0,314.57,12.51Z" fill="#fff"/><path d="M320.29,19.73l1.45,0c.62-4.18.94-6.27,1.56-10.45L322,8.9l.12-.83,2.28.34c.33.05.77.1,1.34.14s1,.09,1.37.14a6.26,6.26,0,0,1,3.51,1.37,2.93,2.93,0,0,1,.68,2.69,3.78,3.78,0,0,1-1,2.07,3.46,3.46,0,0,1-2.09,1A2.88,2.88,0,0,1,329,17c.24.51.52,1.23.85,2.12.25.68.45,1.19.59,1.51s.3.51.46.57l.64.28-.13.82-2.36-.38c-.18,0-.36-.26-.52-.68s-.38-1.07-.63-1.93-.52-1.71-.74-2.28a2.15,2.15,0,0,0-.75-1.14,7.34,7.34,0,0,0-2.18-.35l-.69,4.5,1.67.43-.13.82-4.94-.75C320.22,20.22,320.24,20.06,320.29,19.73Zm8-5.19a3,3,0,0,0,1-2,2.53,2.53,0,0,0-.35-2,3.19,3.19,0,0,0-2.15-1,8.47,8.47,0,0,0-1.12-.1l-.46,0c-.32,2.08-.48,3.13-.79,5.21.17,0,.52.1,1.06.18l1,.15A2.25,2.25,0,0,0,328.3,14.54Z" fill="#fff"/><path d="M337.41,11.57l-1.58-.47c.06-.34.08-.5.14-.84,2,.34,3.07.52,5.11.88l-.15.83-1.65-.08c-.72,4.17-1.07,6.26-1.79,10.42l1.55.46c-.05.33-.08.49-.14.81l-5-.86c.05-.33.08-.49.14-.82l1.6.1C336.35,17.83,336.7,15.74,337.41,11.57Z" fill="#fff"/><path d="M348.46,13.38l-3-.44-1.23,3.38-1.14-.2,1.1-4.43c4.32.77,6.48,1.18,10.8,2-.27,1.8-.4,2.7-.67,4.51L353.24,18l.1-3.6-3-.67c-.8,4.21-1.19,6.32-2,10.54l2.39.63-.15.81c-2.61-.49-3.91-.74-6.51-1.21l.15-.82,2.24.24C347.29,19.71,347.68,17.6,348.46,13.38Z" fill="#fff"/><path d="M362.19,15l1.9.39c.73,4.95,1.08,7.42,1.75,12.36l1,.39c-.07.33-.11.49-.18.82-1.79-.39-2.69-.58-4.48-.95l.17-.82,1.44.13c-.11-1.05-.16-1.58-.28-2.63l-5-1c-.52.92-.78,1.38-1.29,2.31l1.43.46-.17.82-4-.81.16-.82,1.09,0C358.29,21.43,359.58,19.3,362.19,15Zm.54,2.89c-.05-.62-.08-.93-.13-1.56l-.72,1.42c-1.14,2-1.7,3-2.83,5,1.75.35,2.62.53,4.36.9C363.14,21.38,363,20.23,362.73,17.93Z" fill="#fff"/><path d="M375.47,18.92l-3-.56-1.37,3.34L370,21.45c.51-1.75.76-2.63,1.27-4.39,4.3.94,6.44,1.43,10.73,2.43-.33,1.79-.49,2.69-.83,4.49l-1.08-.26c.1-1.43.15-2.15.24-3.59l-2.95-.78c-.95,4.18-1.43,6.27-2.38,10.46l2.37.72c-.08.32-.11.48-.19.81-2.59-.6-3.88-.89-6.47-1.47l.18-.81,2.24.33Z" fill="#fff"/><path d="M386.43,21.63l-1.55-.58c.08-.34.12-.5.19-.83l5.06,1.22-.2.83-1.65-.19-2.5,10.27,1.53.57-.2.79-4.95-1.2c.08-.33.12-.49.19-.81l1.6.21C384.94,27.79,385.44,25.74,386.43,21.63Z" fill="#fff"/><path d="M392.69,34.47a4.94,4.94,0,0,1-1.25-2.64,8.45,8.45,0,0,1,.21-3.42,7.32,7.32,0,0,1,1.58-3.15,5.55,5.55,0,0,1,2.6-1.7,5.73,5.73,0,0,1,3.13,0,5.24,5.24,0,0,1,3.66,2.69,6.82,6.82,0,0,1,.21,4.85,7.53,7.53,0,0,1-1.65,3.18,5.79,5.79,0,0,1-2.65,1.7,5.64,5.64,0,0,1-3.13,0A5.41,5.41,0,0,1,392.69,34.47Zm3-9.39a7.53,7.53,0,0,0-2,3.84,7.49,7.49,0,0,0-.07,4.14,3,3,0,0,0,2.21,2.11,3.06,3.06,0,0,0,2.94-.76,7.68,7.68,0,0,0,2-3.86,7.1,7.1,0,0,0,.1-4.12,3.07,3.07,0,0,0-2.25-2.07A3.14,3.14,0,0,0,395.66,25.08Z" fill="#fff"/><path d="M408.48,27.3l-1.32-.57.23-.82,3.18.87c1.39,3.83,2.07,5.74,3.4,9.57l.45,2c1-3.48,1.5-5.22,2.49-8.7L415.49,29l.23-.81c1.61.45,2.42.69,4,1.15l-.23.82-1.42-.2c-1.28,4.45-1.93,6.67-3.21,11.12l-1.32-.38c-1.35-3.91-2-5.87-3.44-9.78-.28-1-.42-1.51-.71-2.52l-2.58,9.37,1.55.61-.22.8-4.09-1.12.22-.81,1.4.19C406.8,33.41,407.36,31.37,408.48,27.3Z" fill="#fff"/><text transform="translate(96.45 108.84)" font-size="15" fill="#fff" font-family="Merriweather-Regular, Merriweather" letter-spacing="0.09em">MULTI</text><text transform="translate(268.09 106.95)" font-size="15" fill="#fff" font-family="Merriweather-Regular, Merriweather" letter-spacing="0.09em">SYMPTOM</text></svg>