<svg id="Layer_1" data-name="Layer 1" xmlns="http://www.w3.org/2000/svg" width="8.96in" height="7.11in" viewBox="0 0 644.88 511.83"><path d="M158.24,342h21.41L158.24,226.82H134.91L114.88,342h18.17l3.51-23.3h18.53ZM140,303.41l5.21-39.69H148l5.21,39.69Z" fill="#fff"/><polygon points="488.53 225.53 511.26 225.53 511.45 319.6 555.3 319.62 555.3 343.23 488.53 343.23 488.53 225.53" fill="#fff"/><polygon points="219.08 225.53 192.44 225.53 192.44 343.02 213.39 343.02 213.35 271.06 230.42 343.02 252.68 343.02 252.68 225.53 232.82 225.53 233.15 272.53 219.08 225.53" fill="#fff"/><polygon points="186.2 233.23 190.28 233.23 190.18 344.11 203.8 344.19 203.8 347.93 186.21 347.93 186.2 233.23" fill="#fff"/><polygon points="213.36 281.25 213.36 298.19 224.7 347.93 234.95 347.93 234.95 344.2 228.34 344.21 213.36 281.25" fill="#fff"/><polygon points="226.3 249.63 230.54 263.81 230.54 233.23 226.29 233.23 226.3 249.63" fill="#fff"/><path d="M296.77,347.93c-20.14,0-36-18-37.49-22.24A5.67,5.67,0,0,1,259,324l.43-90.66H264l-.4,88.42a3.47,3.47,0,0,0,.21,1.19c1.15,3.23,12.58,19.5,29.41,21.56,13.5,1.65,19.81-4.4,23-7,.17-.14-.72.8-.87,1C312.27,341.94,307.36,347.93,296.77,347.93Z" fill="#fff"/><path d="M297.6,233.36v92.77l.6-.11a5.27,5.27,0,0,0,3.6-1.78l.51-.6V233.36Z" fill="#fff"/><rect x="481.41" y="233.36" width="4.71" height="114.76" fill="#fff"/><path d="M389.44,265.14v3.56l-18-.11.09-13.8a8.74,8.74,0,0,0-.72-3.55,8,8,0,0,0-3.39-3.31c-2.61-1.4-9.1-1-9.1-1a7.3,7.3,0,0,1,.87-2.28c.66-1.06.9-1.37,1.32-1.49a23,23,0,0,1,7,.58,11.58,11.58,0,0,1,5.15,2.69,12.13,12.13,0,0,1,2.53,5.56c.34,2.93.1,13.08.1,13.08Z" fill="#fff"/><path d="M345.31,233.58c-6.22,5-11.76,13.36-12.13,17.95A39.8,39.8,0,0,0,340,276.78c6.68,9.92,12.92,16,17.85,22,5.12,6.23,7.92,9.71,9.21,14.48a61.69,61.69,0,0,1,1.63,14.17l.71.39c1.28-.48.65.1,1.73-.75l2.95-2.06s.3-12-4.57-19.63c-2.52-4-7.65-9.29-11.73-13.69-3.89-4.2-9.25-10.28-14.09-16.58-3.29-4.3-5.84-12.33-6.44-15.21a32.82,32.82,0,0,1-.12-13.24C338.18,242.36,345.31,233.58,345.31,233.58Z" fill="#fff"/><path d="M359.05,344.54a26.55,26.55,0,0,1-22.65-15.16,19.71,19.71,0,0,1-1-5.16l-.21-12.31h-4.33l.12,13.7c0,.32.08,1.4.11,1.63a18,18,0,0,0,2.18,6c3.2,5.55,12.34,14.13,24.27,14.84,3.46.21,8.7-.51,14.9-2.85a49.55,49.55,0,0,0,12.24-7.42S372.9,345.54,359.05,344.54Z" fill="#fff"/><path d="M435.3,348.12c-21.89,0-28.9-14.71-30.67-19.62a11.08,11.08,0,0,1-.59-2.82l.4-66.05c0-1.15.44-8.81.78-10,1.09-3.94,8.52-10.56,8.52-10.56s-3.92,6.58-4.36,9a65.21,65.21,0,0,0-.69,10.45l0,63.33a8.57,8.57,0,0,0,.33,2.36c1.29,4.41,8.16,19.43,24.14,20.5,7.82.52,16.15-.51,18.6-1.2s8.54-4.06,8.54-4.06S452.47,348.12,435.3,348.12Z" fill="#fff"/><path d="M433.19,245.73a10.05,10.05,0,0,1,1.51-2.33c.6-.56,5.81-1.36,8.17-1.08a7.44,7.44,0,0,1,6.2,3.76,10.06,10.06,0,0,1,1.4,4.76v73.81l-.17.86c-.69.75-.92.68-1.87,1.05l-2.21.53-.16-75.29a9.49,9.49,0,0,0-.62-2.59,8,8,0,0,0-1.38-1.67c-1.14-1.07-4.5-2-7.13-2.1A19.73,19.73,0,0,0,433.19,245.73Z" fill="#fff"/><polygon points="126.44 233.23 107.35 343.02 111.36 343.02 130.3 233.23 126.44 233.23" fill="#fff"/><polygon points="144.28 302.21 148.89 302.21 144.16 272.9 142.46 285.88 144.28 302.21" fill="#fff"/><polygon points="139.24 322.04 138.66 325.95 150.11 325.88 153.2 347.93 173.41 347.91 173.41 343.44 156.61 343.48 153.69 322.04 139.24 322.04" fill="#fff"/><path d="M267.47,225.69h20.14v92.4a4.44,4.44,0,0,0,1.07,2.94c1.52,1.74,4.62,4.93,8.9,4.54,3.92-.37,5.44-2.54,7.34-5a6.78,6.78,0,0,0,1-4.22V225.69h20.1v91.08a14.31,14.31,0,0,1-2.44,8.05c-4.18,6.19-13.55,17.31-26.85,17.14S274.26,331.14,270,325.09a14.25,14.25,0,0,1-2.56-8.21Z" fill="#fff"/><path d="M378.57,262.35h16.68s6.22-35-24.56-36.66c-18.56-1-31.25,14.49-31.64,26.74-.53,17.26,18.73,35,24.5,40.73s13.24,12.7,13.41,23.75-9.2,10.48-10.07,10.48h0c-6.65,0-11.79-4.65-11.79-10.89V306.27l-16.55.08v11.77c0,5.91,1.47,10.2,5,14.25,4.27,4.85,11.75,9.59,23.34,9.59,11.15,0,27.91-10.19,28.36-26.66.44-15.65-6.72-25.46-11.78-30-11.54-10.34-20.38-19.14-23.42-24.57s-3.25-9-3.23-10.09c.06-4.61,4-9.4,11.75-9.24C380.52,241.66,378.57,262.35,378.57,262.35Z" fill="#fff"/><path d="M473.5,319.59V249.82a10.19,10.19,0,0,0-1.4-5.15c-3.4-5.83-13.07-19.24-30-19.13-16.74.09-26.38,12.6-29.88,18.24a10.08,10.08,0,0,0-1.52,5.35v72.2a10,10,0,0,0,1.29,5c3,5.33,11.78,16.94,30.94,16.94,16.89,0,26.05-13,29.25-18.62A10.2,10.2,0,0,0,473.5,319.59Zm-42.16-2.42V251.68a10,10,0,0,1,4.47-8.47,11.24,11.24,0,0,1,6.1-1.85,10.83,10.83,0,0,1,6.12,1.77,10,10,0,0,1,4.44,8.47v65.86A10,10,0,0,1,448,326a11.08,11.08,0,0,1-6.06,1.76h-.25A10.57,10.57,0,0,1,431.34,317.17Z" fill="#fff"/><text transform="matrix(0.98, -0.15, 0.15, 0.99, 179.68, 443.07)" font-size="76.38" fill="#fff" font-family="Damion">Ointment</text><rect x="486.12" y="344.16" width="30.92" height="3.96" fill="#fff"/><path d="M624.82,397.22a60.51,60.51,0,0,1-45.26,58.57c-57.07,14.84-159.41,37.31-255.88,37.31s-199.63-22.53-257-37.36a60.52,60.52,0,0,1-45.36-58.6V118.82A60.57,60.57,0,0,1,60.72,62.09c48.52-18.11,139.85-44.23,263-44.23,122.94,0,213.66,26.05,261.86,44.16a60.53,60.53,0,0,1,39.28,56.67Z" fill="none" stroke="#fff" stroke-miterlimit="10" stroke-width="8"/><path d="M640.88,406.19a64.09,64.09,0,0,1-47.77,62.09c-60.22,15.73-168.22,39.55-270,39.55S112.42,484,51.86,468.22A64.1,64.1,0,0,1,4,406.1V111A64.18,64.18,0,0,1,45.6,50.9C96.79,31.7,193.17,4,323.09,4,452.82,4,548.56,31.62,599.43,50.82a64.16,64.16,0,0,1,41.45,60.08Z" fill="none" stroke="#fff" stroke-miterlimit="10" stroke-width="8"/><polygon points="345.1 171.8 345.1 190.48 354.81 194.31 354.81 171.8 345.1 171.8" fill="#fff"/><path d="M261.76,104.18s-2,5-2.1,6.63a33,33,0,0,0,0,6.14c.19.65,23.44,46.47,23.44,46.47l2.85-2.15S263,116.88,263,116.14a51.85,51.85,0,0,1,0-6.48c.19-1.28,1.32-5.48,1.32-5.48Z" fill="#fff"/><path d="M274.63,92.66c-1.83,0-6.82,3-7.59,4s-2,2.39-1.71,3.46S290,158.71,290,158.71l3.08-1.88S269,101,268.76,99.87s-.14-1.44.09-1.78a20.26,20.26,0,0,1,2.64-3,25.26,25.26,0,0,1,3.13-2.11Z" fill="#fff"/><path d="M288,89.59s-5.91.2-6.77.38-3.9,1.7-3.85,2.49,21.31,62.74,21.31,62.74l2.7-.31s-20.34-60.84-20.34-61.65a1.73,1.73,0,0,1,1.23-1.92c1.05-.3,5.7-1,5.7-1Z" fill="#fff"/><path d="M296.82,91.33s-3.64-.07-4.36.3a2.35,2.35,0,0,0-1,2.06c0,.59,16,60.55,16,60.55l3.18-.38s-15.7-59.53-15.77-60.21-.23-1.46.3-1.63a12.91,12.91,0,0,1,1.68-.31Z" fill="#fff"/><path d="M306.71,98.05H304.3a3.05,3.05,0,0,0-.62,1.5c0,.71,12.64,54,12.64,54h2.61s-12.11-53.14-12.15-53.85S306.71,98.05,306.71,98.05Z" fill="#fff"/><path d="M313.66,176.93l.48.63c1.14,1.34,1.52,1.82,2.9,3.28l33.18-16.2-5-1.8-.17-.08Z" fill="#fff"/><polygon points="319 184.69 322.49 188.54 354.81 171.81 349.46 169.33 319 184.69" fill="#fff"/><polygon points="280.2 174.06 279.63 179.31 317.3 180.75 313.92 176.85 280.2 174.06" fill="#fff"/><path d="M353.33,169.24l-1.65-16.13,4.65-2.71,1.24-.12,1.64,15.92.66-.06s1.24-8.28,1.47-10.53.67-7,.67-7l6.44-3.45-.45-4.41s-11.62,4.59-14.8,5.28-11.83,1.26-13.47,1.38c-.79.07-19,.35-19,.35l.84,5,22.14,0,1.15,10,4.86,1.79-.29,4.72,5.2,2.49h.15" fill="#fff"/><polygon points="307.59 179.93 307.59 198.61 317.3 202.44 317.3 179.93 307.59 179.93" fill="#fff" stroke="#fff" stroke-miterlimit="10" stroke-width="0.5"/><path d="M310.15,187.54c-1-2.54-2.74-7-4-10.39-4.56.94-12,2.23-12,2.23s-10.85,1.8-14.07,2.71-11.59,4.44-12.73,5l-7,3.45v.92L273,195.21a6.23,6.23,0,0,0,1.78.26h2a5,5,0,0,0,1-.1c2.38-.49,13.2-2.69,15.4-3.08,2.48-.44,13.48-2.74,13.48-2.74S310,188,310.15,187.54Z" fill="#fff"/><path d="M298.44,161.31c.64.09,4.76.56,7.2.59a22.33,22.33,0,0,0,5.39-.28c.92-.3.67-.67.54-.91s-1.21-.5-2.88-.71-4-.45-5.34-.62a34.62,34.62,0,0,1-3.45-.61,2.07,2.07,0,0,1-.77-.32,7.88,7.88,0,0,1-.22.88,4.48,4.48,0,0,0-.46.91A9.82,9.82,0,0,0,298.44,161.31Z" fill="#fff"/><path d="M305.17,174.8c1.17,0,7.27.15,8.54,0s2.66-.39,3.87-.49a6.13,6.13,0,0,0,2.88-1c1.21-.78,4.45-.88,9.7-5.71.85-1.46,7.33-1.75,9.43-3.76,0,0,1.72-1.09,1.78-2.05,0-.71-.13-3.51-.21-4.31a.88.88,0,0,0-.19-.5c-.21-.29-.81,0-.83,0-1.66,1.16-1.24,2.67-11.07,3.43-4.19,4-10.1,4.7-9.53,4.95,0,0-.6.35-.47,1.55a15.78,15.78,0,0,1-.07,3.07c-.05.84-.17,2.7-.62,3.14a8,8,0,0,1-3.24,1.23C314.31,174.41,305.17,174.8,305.17,174.8Z" fill="#fff" stroke="#fff" stroke-miterlimit="10" stroke-width="0.5"/><path d="M287.58,162.42c-.54.4-1.52,1.27-1.6,2.07a36.07,36.07,0,0,0,.34,5c.05,1,.28,3.41.81,3.95s3.06.63,4.86.71,6.54.72,8.18.74c.95,0,4.28-.1,5-.12" fill="none" stroke="#fff" stroke-miterlimit="10" stroke-width="0.5"/><path d="M341,157c-1-2.82-11.65-3.77-21.81-1.4-1.47.28-5.55-.21-9.56-.06-6,.23-11.5.83-10.33,3.29" fill="none" stroke="#fff" stroke-miterlimit="10" stroke-width="0.5"/><path d="M329.42,160.83a11.73,11.73,0,0,0-3.07-1.05,18.92,18.92,0,0,0-3.27-.36,28.23,28.23,0,0,0-3.3.2l-3.3.35,3.28-.47a26.1,26.1,0,0,1,3.32-.33,19.57,19.57,0,0,1,3.33.24,12,12,0,0,1,3.24,1Z" fill="#fff"/><path d="M305.39,161.65c-2,0-6.8-.35-7.22-.65-4.5-1.27-17.22,2.35-7.7,3.07,5.73,1.21,6.45,1.61,13.61.63,5.6-.64,9.2-2.18,15.46.62" fill="none" stroke="#fff" stroke-miterlimit="10" stroke-width="0.5"/><path d="M119.23,97.19l1.35-.57c-1.18-4.06-1.76-6.1-2.93-10.16l-1.39.17c-.1-.32-.14-.48-.23-.8l2.23-.64c.32-.09.74-.24,1.28-.44s1-.35,1.31-.44a6.46,6.46,0,0,1,3.79-.23,3,3,0,0,1,1.74,2.16,3.76,3.76,0,0,1-.08,2.32,3.5,3.5,0,0,1-1.47,1.82,2.91,2.91,0,0,1,1.27.67c.44.37,1,.9,1.66,1.58.52.52.91.89,1.18,1.12a.93.93,0,0,0,.66.33h.7c.08.32.13.48.22.8l-2.32.64c-.18,0-.43-.08-.76-.4s-.79-.81-1.38-1.49-1.19-1.34-1.63-1.76a2.22,2.22,0,0,0-1.16-.73,7.55,7.55,0,0,0-2.15.6l1.25,4.38,1.71-.31.23.8c-1.94.55-2.91.82-4.85,1.39Zm5.17-8.07a3.07,3.07,0,0,0,.06-2.22,2.55,2.55,0,0,0-1.15-1.65,3.18,3.18,0,0,0-2.38,0,9.86,9.86,0,0,0-1.08.38,3.24,3.24,0,0,1-.43.15l1.45,5.07,1-.28,1-.27A2.32,2.32,0,0,0,124.4,89.12Z" fill="#fff"/><path d="M131.19,82.7l-1.46.18-.22-.82c3.48-.94,5.23-1.4,8.72-2.3l.89,2.49-1,.25L137.24,81,133,82c.49,1.86.74,2.79,1.23,4.64l2.83-.8c-.05-.57-.08-.85-.12-1.42l.93-.25,1,3.79-.93.24-.6-1.35-2.85.69,1.3,4.9,4.71-1.41c.14-.92.22-1.38.36-2.3l1.08,0c.09,1.19.14,1.79.24,3-3.74,1-5.61,1.45-9.34,2.45l-.22-.8,1.35-.54C132.83,88.82,132.28,86.78,131.19,82.7Z" fill="#fff"/><path d="M143.9,79.41l-1.43.15c-.09-.33-.13-.49-.21-.82,2-.5,3-.74,4.93-1.22l.2.82-1.65.62c1,4.11,1.51,6.16,2.53,10.27L152.59,88c.14-1.21.21-1.81.34-3l1.07-.1.3,3.9c-3.61.85-5.41,1.29-9,2.2-.08-.33-.12-.49-.21-.81l1.37-.52C145.44,85.57,144.93,83.52,143.9,79.41Z" fill="#fff"/><path d="M156.61,76.37l-1.64.17-.2-.83c2-.47,3-.7,5.07-1.15l.19.82-1.56.57c.94,4.12,1.41,6.18,2.34,10.31l1.62-.18.18.8-5,1.13c-.08-.32-.11-.48-.19-.81l1.52-.52C158,82.55,157.56,80.49,156.61,76.37Z" fill="#fff"/><path d="M164.79,74.54l-1.46.11-.18-.83c3.51-.77,5.27-1.15,8.79-1.88l.78,2.53-1,.2c-.34-.6-.51-.9-.84-1.51l-4.3.81c.4,1.88.61,2.81,1,4.69l2.85-.66-.05-1.43.94-.2.81,3.83-.94.19L170.67,79l-2.86.56c.42,2,.64,3,1.06,5l4.76-1.19c.19-.91.28-1.37.47-2.28l1.07.09.1,3c-3.77.78-5.66,1.18-9.42,2l-.18-.82,1.37-.47Z" fill="#fff"/><path d="M174.86,71.34l4.61-.92c.06.33.1.5.16.84l-1.5.5c1.76,2.9,2.64,4.35,4.38,7.26l1,1.92c.07-.87.1-1.31.17-2.18.42-3.32.63-5,1.07-8.29l-1.4.06c-.07-.33-.1-.5-.16-.83l3.86-.73.16.83-1.07.41c-.78,4.91-1.16,7.37-1.88,12.28l-1.48.29c-2.64-4.26-4-6.38-6.67-10.62H175C175,71.84,174.93,71.67,174.86,71.34Z" fill="#fff"/><path d="M190.73,69.37l-1.46.06-.15-.84c3.53-.64,5.3-1,8.84-1.56.27,1,.41,1.54.68,2.56l-1,.17c-.32-.62-.47-.93-.79-1.54-1.72.25-2.59.38-4.31.65.33,1.89.5,2.83.84,4.72l2.86-.56V71.6l1-.16.67,3.85-.95.16c-.19-.56-.29-.84-.49-1.39l-2.88.45c.35,2,.53,3,.89,5l4.79-1,.55-2.27,1.06.13c0,1.2,0,1.8,0,3-3.79.65-5.68,1-9.47,1.67l-.15-.82,1.39-.42C191.86,75.61,191.48,73.53,190.73,69.37Z" fill="#fff"/><path d="M206.61,78.44c-.48,0-1-.07-1.61-.16a3.82,3.82,0,0,0-.8-.07c-.14-1.22-.21-1.84-.36-3.06l1.1-.18.65,2.14a2.72,2.72,0,0,0,1,.32,4.92,4.92,0,0,0,1.48,0,3.05,3.05,0,0,0,1.89-.88,2,2,0,0,0,.43-1.69,1.7,1.7,0,0,0-.54-1.06,3,3,0,0,0-1.11-.66c-.44-.16-1-.33-1.8-.52a13.94,13.94,0,0,1-1.82-.59,4.29,4.29,0,0,1-1.43-1,3,3,0,0,1-.81-1.67,2.8,2.8,0,0,1,.24-1.74,3.47,3.47,0,0,1,1.29-1.39,5.63,5.63,0,0,1,2.18-.77,7.66,7.66,0,0,1,1.44-.11c.42,0,.91,0,1.45.1a2.43,2.43,0,0,0,.62.06c.13,1.14.19,1.71.32,2.84l-1.05.17-.67-2a1.83,1.83,0,0,0-.77-.2,4.2,4.2,0,0,0-1.22,0,2.89,2.89,0,0,0-1.73.78,1.93,1.93,0,0,0,.16,2.57,3.43,3.43,0,0,0,1.05.62c.4.16,1,.35,1.9.6s1.46.45,2,.65a4.33,4.33,0,0,1,1.38.92,2.69,2.69,0,0,1,.76,1.54,3.3,3.3,0,0,1-.25,1.79,3.76,3.76,0,0,1-1.33,1.59,5.67,5.67,0,0,1-2.43.93A8.42,8.42,0,0,1,206.61,78.44Z" fill="#fff"/><path d="M221.48,64.49l-1.65,0c0-.34-.07-.51-.11-.84,2.05-.29,3.07-.43,5.12-.7,0,.34.07.5.12.84l-1.6.42c.57,4.19.85,6.29,1.41,10.48l1.62,0,.11.81-5,.68c0-.33-.07-.49-.12-.82l1.56-.39C222.34,70.77,222.06,68.68,221.48,64.49Z" fill="#fff"/><path d="M232.55,62.9l-3,.47c-.07,1.44-.1,2.16-.16,3.6l-1.15.15c-.11-1.82-.17-2.74-.28-4.56,4.35-.55,6.53-.82,10.88-1.31.29,1.8.43,2.7.72,4.5l-1.09.13-1-3.47-3,.26,1.27,10.65,2.46-.12c0,.33.05.5.09.83-2.62.3-3.93.46-6.56.79l-.1-.83,2.21-.44C233.33,69.29,233.07,67.16,232.55,62.9Z" fill="#fff"/><path d="M245.63,72.59a5.2,5.2,0,0,1-2.27-2,8,8,0,0,1-1.06-3.34,6.7,6.7,0,0,1,.45-3.43,5.8,5.8,0,0,1,2-2.5,6.53,6.53,0,0,1,3.14-1.13,15.47,15.47,0,0,1,3.27.09l.59,0c.05,1.23.07,1.84.12,3.07l-1.17.11-.65-2.11a2.19,2.19,0,0,0-.88-.26,6.14,6.14,0,0,0-1.49,0,3.43,3.43,0,0,0-1.93.82,4.14,4.14,0,0,0-1.18,2,7.67,7.67,0,0,0-.19,2.93,9.46,9.46,0,0,0,.74,2.85,4.67,4.67,0,0,0,1.53,1.93,3.26,3.26,0,0,0,2.25.55,5.18,5.18,0,0,0,1.39-.29,2.49,2.49,0,0,0,.79-.53c.22-.69.34-1,.56-1.72l1.1,0c-.07,1-.11,1.46-.18,2.44a4.68,4.68,0,0,0-1,.34,11.52,11.52,0,0,1-1.16.41,7.46,7.46,0,0,1-1.43.25A6.08,6.08,0,0,1,245.63,72.59Z" fill="#fff"/><path d="M256.42,60.54l-1.4-.08c0-.34,0-.51-.07-.85l4.76-.41c0,.34,0,.5.07.84l-1.49.33.4,4.56c2.45-.21,3.67-.31,6.12-.5l-.36-4.56L263,59.78c0-.34,0-.51-.07-.85l4.7-.36c0,.34,0,.51.06.85l-1.37.3.8,10.55,1.37.07c0,.33,0,.5.06.83l-4.63.35c0-.33,0-.5-.07-.83l1.4-.28c-.15-2-.23-3-.38-4.93-2.45.19-3.67.29-6.11.5.17,2,.25,3,.42,4.93l1.52,0c0,.33,0,.5.07.83-1.9.16-2.84.24-4.74.42,0-.34,0-.5-.07-.83l1.38-.3C257,66.86,256.8,64.75,256.42,60.54Z" fill="#fff"/><path d="M274.8,68.74a2.57,2.57,0,0,1,.48,1.47,5.69,5.69,0,0,1-.19,1.89,5.78,5.78,0,0,1-.68,1.59,3.11,3.11,0,0,1-.85,1h0l-.61-.37,0-.19a2.75,2.75,0,0,0,.62-1.22,5,5,0,0,0,.24-1.75.83.83,0,0,0-.12-.41,2.45,2.45,0,0,0-.33-.36,2.49,2.49,0,0,1-.39-.45,1.28,1.28,0,0,1-.17-.58,1,1,0,0,1,.24-.74,1,1,0,0,1,.7-.32h.09A1.13,1.13,0,0,1,274.8,68.74Z" fill="#fff"/><path d="M285.62,58.53l-1.44-.13-.05-.85,2.37-.12c.4,0,.9-.06,1.51-.14s1-.11,1.24-.12a6.2,6.2,0,0,1,3.5.59,2.44,2.44,0,0,1,1.12,2.1,3.09,3.09,0,0,1-2.54,3.26,3.83,3.83,0,0,1,2.66.66,2.69,2.69,0,0,1,1,2.14,3.58,3.58,0,0,1-1.13,2.85,6.22,6.22,0,0,1-4,1.26c-.41,0-.82,0-1.19,0-.88,0-1.44,0-1.61,0l-2.29.11c0-.33,0-.49,0-.83l1.42-.24C285.93,64.87,285.83,62.75,285.62,58.53Zm3.06,4.4,1,0a2.44,2.44,0,0,0,1.82-.74,2.62,2.62,0,0,0,.55-1.91,2.17,2.17,0,0,0-.7-1.72,3.29,3.29,0,0,0-2.18-.46,11.74,11.74,0,0,0-1.29.13l-.37.05c.09,1.89.13,2.83.22,4.72Zm1.1,6.18a3.77,3.77,0,0,0,2.5-.81,2.59,2.59,0,0,0,.7-2.06,2.37,2.37,0,0,0-.76-1.88,3.35,3.35,0,0,0-2.24-.5c-1.18,0-1.93.1-2.24.13.09,2,.14,3,.23,5.06A7.14,7.14,0,0,0,289.78,69.11Z" fill="#fff"/><path d="M300.14,68.35a6.06,6.06,0,0,1-1.33-4.1l-.2-6.24-1.25-.16c0-.34,0-.51,0-.85l4.69-.14c0,.34,0,.51,0,.85l-1.48.26.18,6.41a5.25,5.25,0,0,0,.94,3.3,2.91,2.91,0,0,0,2.43,1,2.72,2.72,0,0,0,2.34-1.14,5.34,5.34,0,0,0,.72-3.18c-.05-2.6-.07-3.9-.12-6.51l-1.48-.19,0-.85,4.09-.07c0,.34,0,.51,0,.85l-1.28.22c.05,2.58.07,3.87.11,6.44a5.47,5.47,0,0,1-1.2,4,4.56,4.56,0,0,1-3.38,1.38A4.82,4.82,0,0,1,300.14,68.35Z" fill="#fff"/><path d="M312.44,68.45l1.43-.18c0-4.23-.06-6.35-.11-10.58l-1.37-.2c0-.33,0-.5,0-.83l2.3,0c.33,0,.78,0,1.34-.08s1-.07,1.37-.07a6.3,6.3,0,0,1,3.68.79,3,3,0,0,1,1.09,2.54,3.81,3.81,0,0,1-.69,2.21,3.42,3.42,0,0,1-1.89,1.37,2.92,2.92,0,0,1,1,1c.32.47.71,1.13,1.17,2,.36.63.63,1.1.82,1.4s.37.46.55.49l.67.17v.83h-2.38c-.19,0-.4-.19-.63-.59s-.53-1-.92-1.8a22.38,22.38,0,0,0-1.09-2.13c-.3-.53-.66-.95-.91-1a7.35,7.35,0,0,0-2.21,0c0,1.82,0,2.73,0,4.55l1.72.16v.83l-5,.05Zm7.07-6.39a3.1,3.1,0,0,0,.64-2.13,2.54,2.54,0,0,0-.66-1.89,3.16,3.16,0,0,0-2.27-.65c-.38,0-.76,0-1.13.08l-.45,0c0,2.11,0,3.16,0,5.27h2.07A2.23,2.23,0,0,0,319.51,62.06Z" fill="#fff"/><path d="M327.71,57.68l-1.41-.21c0-.34,0-.51,0-.85l3.27,0c2.3,3.35,3.44,5,5.69,8.39l.94,1.82c.07-3.62.1-5.43.18-9l-1.52-.23c0-.34,0-.51,0-.85l4.15.09c0,.34,0,.51,0,.85l-1.41.17c-.1,4.63-.16,6.94-.26,11.57l-1.36,0c-2.28-3.44-3.43-5.16-5.77-8.58l-1.32-2.26-.1,9.72,1.64.19c0,.34,0,.5,0,.84-1.68,0-2.51,0-4.19,0v-.84l1.39-.17C327.65,64,327.67,61.9,327.71,57.68Z" fill="#fff"/><path d="M343.59,58,342,57.73c0-.34,0-.51,0-.85,2.07.06,3.1.09,5.16.17,0,.34,0,.51,0,.85l-1.64.14-.35,10.57,1.6.24c0,.33,0,.49,0,.82l-5.06-.16c0-.33,0-.5,0-.83l1.6-.13C343.4,64.33,343.47,62.21,343.59,58Z" fill="#fff"/><path d="M351.94,58.28l-1.4-.26,0-.85,3.26.14c2.19,3.42,3.28,5.13,5.42,8.56l.87,1.85c.19-3.61.29-5.41.48-9l-1.51-.28,0-.85,4.14.22,0,.85-1.41.13c-.25,4.62-.38,6.93-.63,11.56l-1.36-.08c-2.17-3.51-3.27-5.26-5.49-8.76l-1.25-2.3c-.16,3.89-.25,5.83-.41,9.72l1.63.24c0,.33,0,.5,0,.83l-4.19-.18c0-.33,0-.5,0-.83l1.39-.13C351.68,64.61,351.76,62.5,351.94,58.28Z" fill="#fff"/><path d="M368.1,70.1a5.37,5.37,0,0,1-1.93-2.38,7.34,7.34,0,0,1-.51-3.29,7.17,7.17,0,0,1,1.07-3.53,5.52,5.52,0,0,1,2.49-2.12,7.49,7.49,0,0,1,3.49-.54,18.69,18.69,0,0,1,4.05.83c-.16,1.16-.23,1.75-.38,2.92l-1.24-.1c-.11-.82-.16-1.23-.27-2.06a2.57,2.57,0,0,0-.81-.42,6,6,0,0,0-1.55-.28,4.2,4.2,0,0,0-2.3.46,4,4,0,0,0-1.65,1.72,7,7,0,0,0-.74,2.88,9.14,9.14,0,0,0,.26,2.91,4.79,4.79,0,0,0,1.21,2.18,3.3,3.3,0,0,0,2.17.94,6.33,6.33,0,0,0,1.58-.08,3,3,0,0,0,1.18-.44l.27-3.78-2.17-.32c0-.4,0-.6.07-1l5.07.38c0,.4,0,.6-.07,1l-1,.07c-.14,1.83-.21,2.74-.34,4.56a6.26,6.26,0,0,0-1.28.2c-.61.14-1.19.23-1.72.3a10.27,10.27,0,0,1-1.77,0A6.24,6.24,0,0,1,368.1,70.1Z" fill="#fff"/><path d="M397.82,67.24l-1.42,0a6.39,6.39,0,0,1-.57,2.15A4.79,4.79,0,0,1,394.65,71a5.54,5.54,0,0,0,1,.89,2.77,2.77,0,0,0,1.12.4c0,.3,0,.45-.07.75a2.14,2.14,0,0,1-.58.08,6.75,6.75,0,0,1-.68,0,2.63,2.63,0,0,1-1.07-.33,5.45,5.45,0,0,1-1.05-.86,4.54,4.54,0,0,1-1.58.62,6.06,6.06,0,0,1-1.69.09,5.75,5.75,0,0,1-3.25-1.19,2.83,2.83,0,0,1-1-2.55,2.61,2.61,0,0,1,.88-1.8,5.06,5.06,0,0,1,2-1.08,5.7,5.7,0,0,1-1.2-3.63,2.56,2.56,0,0,1,.59-1.43,3.22,3.22,0,0,1,1.35-1,3.87,3.87,0,0,1,1.81-.24,3.92,3.92,0,0,1,1.69.51,2.56,2.56,0,0,1,1,1,2.07,2.07,0,0,1,.23,1.15,3.52,3.52,0,0,1-.52,1.61,4,4,0,0,1-1.07,1,18.66,18.66,0,0,1-1.78,1c.36.51.83,1.16,1.41,1.93s1.06,1.39,1.43,1.85l.4.45a3.33,3.33,0,0,0,.74-1.2,5.49,5.49,0,0,0,.34-1.44,2.27,2.27,0,0,0,0-.48l-1.38-.32c0-.38,0-.56.09-.93l4.1.41Zm-6.31,4.4a3.65,3.65,0,0,0,1.12-.41,20.74,20.74,0,0,1-1.36-1.65c-.49-.64-1.1-1.47-1.84-2.49l-.26-.36a3.08,3.08,0,0,0-1.69,2.2,2.34,2.34,0,0,0,.63,1.86,3.28,3.28,0,0,0,2.18.91A4.19,4.19,0,0,0,391.51,71.64Zm-2.05-7.73a6.72,6.72,0,0,0,.84,1.44A7.19,7.19,0,0,0,392,64a3.13,3.13,0,0,0,.6-1.65,2,2,0,0,0-.24-1.18,1.4,1.4,0,0,0-1.18-.63,1.56,1.56,0,0,0-1.28.44,2.05,2.05,0,0,0-.63,1.38A3.08,3.08,0,0,0,389.46,63.91Z" fill="#fff"/><path d="M408.55,62.82l-1.6-.4.1-.84c2.05.24,3.08.36,5.13.62l-.1.84h-1.65c-.51,4.19-.77,6.29-1.28,10.49l1.58.38-.1.81c-2-.25-3-.37-5-.6,0-.33,0-.5.09-.83l1.61,0Z" fill="#fff"/><path d="M414,74.32l1.45,0c.55-4.2.82-6.29,1.37-10.49l-1.33-.39.1-.83,2.29.3c.33,0,.77.08,1.33.11s1,.07,1.37.11a6.39,6.39,0,0,1,3.55,1.31,2.94,2.94,0,0,1,.73,2.67,3.86,3.86,0,0,1-1,2.09,3.38,3.38,0,0,1-2.06,1.08,3,3,0,0,1,.89,1.13c.25.51.54,1.22.89,2.11.26.68.47,1.18.62,1.5a.94.94,0,0,0,.47.56l.64.27c-.05.33-.07.49-.12.82l-2.36-.34c-.19,0-.36-.25-.54-.66s-.39-1.06-.66-1.92-.55-1.7-.78-2.27a2.2,2.2,0,0,0-.77-1.12,7.74,7.74,0,0,0-2.19-.32l-.6,4.52L419,75l-.11.82c-2-.27-3-.4-5-.65C414,74.82,414,74.65,414,74.32ZM421.92,69a3.07,3.07,0,0,0,.93-2,2.51,2.51,0,0,0-.39-2,3.08,3.08,0,0,0-2.16-1,10.73,10.73,0,0,0-1.13-.08l-.46,0c-.27,2.09-.41,3.13-.69,5.22.17,0,.53.09,1.07.16l1,.14A2.27,2.27,0,0,0,421.92,69Z" fill="#fff"/><path d="M427.64,76.21l1.44,0c.63-4.18.94-6.28,1.57-10.46l-1.32-.42.12-.82,2.28.34c.33,0,.77.09,1.33.13s1.05.09,1.37.14A6.36,6.36,0,0,1,438,66.54a2.91,2.91,0,0,1,.68,2.68,3.78,3.78,0,0,1-1,2.07,3.42,3.42,0,0,1-2.09,1,2.92,2.92,0,0,1,.87,1.14c.24.52.52,1.23.85,2.13.25.68.45,1.18.59,1.5a1,1,0,0,0,.46.58l.64.28-.13.82-2.36-.39c-.18,0-.36-.25-.52-.67s-.38-1.07-.63-1.94-.52-1.7-.74-2.27a2.17,2.17,0,0,0-.75-1.14A7.84,7.84,0,0,0,431.6,72l-.68,4.51,1.67.43-.13.82c-2-.31-3-.46-4.95-.75C427.56,76.7,427.59,76.53,427.64,76.21Zm8-5.19a3.11,3.11,0,0,0,1-2,2.59,2.59,0,0,0-.35-2,3.15,3.15,0,0,0-2.15-1,10.61,10.61,0,0,0-1.12-.11l-.46,0-.8,5.21,1.07.18,1,.15A2.3,2.3,0,0,0,435.65,71Z" fill="#fff"/><path d="M444.76,68.05l-1.58-.48c.05-.33.08-.5.14-.83,2,.34,3.06.51,5.11.87l-.15.84-1.65-.08-1.8,10.42,1.56.46c-.06.32-.08.48-.14.8-2-.35-3-.52-5-.85.05-.33.08-.5.13-.83l1.61.1C443.69,74.3,444.05,72.22,444.76,68.05Z" fill="#fff"/><path d="M455.81,69.86l-3-.45c-.49,1.35-.74,2-1.24,3.39l-1.13-.21c.43-1.77.65-2.66,1.09-4.43,4.33.78,6.49,1.18,10.8,2-.26,1.81-.39,2.71-.66,4.51l-1.08-.21.1-3.6-3-.67c-.79,4.22-1.19,6.33-2,10.54l2.39.63-.16.82c-2.6-.5-3.9-.74-6.51-1.22l.15-.82,2.25.24C454.63,76.19,455,74.08,455.81,69.86Z" fill="#fff"/><path d="M469.54,71.52l1.9.39c.72,4.94,1.07,7.41,1.74,12.35l1,.4c-.07.32-.1.49-.17.81-1.79-.38-2.69-.58-4.49-1l.18-.82,1.44.13c-.11-1-.17-1.57-.28-2.63l-5-1-1.3,2.3,1.43.46-.16.82-4-.81.16-.81,1.09,0C465.63,77.9,466.93,75.77,469.54,71.52Zm.54,2.88c-.06-.62-.08-.93-.13-1.55l-.73,1.41c-1.13,2-1.7,3-2.82,5l4.36.89C470.49,77.85,470.35,76.7,470.08,74.4Z" fill="#fff"/><path d="M482.82,75.4l-3-.56-1.37,3.33-1.13-.24c.5-1.76.76-2.64,1.26-4.39,4.3.94,6.45,1.42,10.74,2.43l-.83,4.48-1.08-.25c.1-1.44.14-2.16.24-3.59l-3-.79c-.95,4.19-1.42,6.28-2.37,10.46l2.37.72c-.08.33-.12.49-.19.81-2.59-.59-3.88-.89-6.47-1.46l.18-.81,2.24.32Z" fill="#fff"/><path d="M493.77,78.1l-1.55-.58.2-.83,5.06,1.23c-.09.33-.13.49-.21.82l-1.64-.19-2.5,10.27,1.52.57-.19.79L489.51,89c.08-.32.11-.48.19-.81l1.6.21C492.29,84.27,492.78,82.21,493.77,78.1Z" fill="#fff"/><path d="M500,91a5,5,0,0,1-1.24-2.64,8.32,8.32,0,0,1,.21-3.43,7.33,7.33,0,0,1,1.57-3.14,5.55,5.55,0,0,1,2.61-1.7,5.73,5.73,0,0,1,3.13,0A5.24,5.24,0,0,1,510,82.7a6.82,6.82,0,0,1,.21,4.85,7.43,7.43,0,0,1-1.65,3.17,5.79,5.79,0,0,1-2.65,1.71,5.87,5.87,0,0,1-3.14,0A5.57,5.57,0,0,1,500,91Zm3-9.39a9.24,9.24,0,0,0-2.06,8,3,3,0,0,0,2.21,2.1,3,3,0,0,0,2.94-.76,7.63,7.63,0,0,0,2-3.86,7.15,7.15,0,0,0,.1-4.11A3,3,0,0,0,506,80.84,3.09,3.09,0,0,0,503,81.56Z" fill="#fff"/><path d="M515.82,83.77l-1.31-.57c.09-.32.13-.49.22-.82l3.18.88c1.39,3.82,2.08,5.74,3.41,9.57l.45,2,2.49-8.69-1.42-.62.23-.82,4,1.16c-.09.32-.14.49-.24.81l-1.41-.19c-1.29,4.44-1.93,6.67-3.21,11.12l-1.33-.38c-1.34-3.92-2-5.87-3.43-9.78-.28-1-.43-1.52-.71-2.53l-2.58,9.38,1.55.6-.23.8-4.08-1.12.22-.8L513,94C514.15,89.88,514.71,87.85,515.82,83.77Z" fill="#fff"/><text transform="translate(203.8 165.32)" font-size="15" fill="#fff" font-family="Merriweather-Regular, Merriweather" letter-spacing="0.09em">MULTI</text><text transform="translate(375.44 163.42)" font-size="15" fill="#fff" font-family="Merriweather-Regular, Merriweather" letter-spacing="0.09em">SYMPTOM</text></svg>