<svg id="Layer_1" data-name="Layer 1" xmlns="http://www.w3.org/2000/svg" width="6.22in" height="5.29in" viewBox="0 0 447.96 380.99"><path d="M50.89,252.38H72.3L50.89,137.23H27.56l-20,115.15H25.7l3.51-23.3H47.74ZM32.61,213.82l5.21-39.69h2.85l5.21,39.69Z" fill="#fff"/><polygon points="381.18 135.95 403.91 135.95 404.1 230.01 447.96 230.03 447.96 253.64 381.18 253.64 381.18 135.95" fill="#fff"/><polygon points="111.73 135.95 85.09 135.95 85.09 253.43 106.04 253.43 106 181.47 123.07 253.43 145.33 253.43 145.33 135.95 125.47 135.95 125.8 182.94 111.73 135.95" fill="#fff"/><polygon points="78.86 143.64 82.93 143.64 82.84 254.52 96.45 254.6 96.45 258.34 78.86 258.34 78.86 143.64" fill="#fff"/><polygon points="106.02 191.66 106.02 208.6 117.35 258.34 127.6 258.34 127.6 254.62 120.99 254.62 106.02 191.66" fill="#fff"/><polygon points="118.95 160.05 123.19 174.23 123.19 143.64 118.95 143.64 118.95 160.05" fill="#fff"/><path d="M189.42,258.34c-20.13,0-36-18-37.49-22.24a6,6,0,0,1-.28-1.67l.44-90.66h4.6l-.41,88.42a3.53,3.53,0,0,0,.21,1.2c1.15,3.22,12.58,19.49,29.41,21.55,13.5,1.65,19.82-4.4,23-7,.17-.14-.72.8-.87,1C204.93,252.35,200,258.34,189.42,258.34Z" fill="#fff"/><path d="M190.25,143.77v92.77l.6-.11a5.24,5.24,0,0,0,3.6-1.77l.51-.61V143.77Z" fill="#fff"/><rect x="374.06" y="143.77" width="4.71" height="114.76" fill="#fff"/><path d="M282.09,175.55v3.56l-18-.11.09-13.8a8.58,8.58,0,0,0-.72-3.55,8,8,0,0,0-3.39-3.31c-2.6-1.39-9.1-1-9.1-1a7.41,7.41,0,0,1,.87-2.29c.66-1,.91-1.37,1.33-1.49a23.34,23.34,0,0,1,7,.58,11.47,11.47,0,0,1,5.15,2.7,12.09,12.09,0,0,1,2.53,5.56c.34,2.92.1,13.07.1,13.07Z" fill="#fff"/><path d="M238,144c-6.22,5-11.76,13.37-12.13,17.95a39.79,39.79,0,0,0,6.87,25.26c6.67,9.91,12.91,16,17.84,22,5.13,6.24,7.92,9.71,9.21,14.48a61.12,61.12,0,0,1,1.63,14.18l.71.39c1.28-.49.66.1,1.73-.75l3-2.07s.29-12-4.57-19.63c-2.53-4-7.65-9.29-11.73-13.69-3.9-4.2-9.26-10.27-14.09-16.58-3.3-4.3-5.85-12.32-6.44-15.21a32.83,32.83,0,0,1-.13-13.24C230.83,152.77,238,144,238,144Z" fill="#fff"/><path d="M251.7,255a26.55,26.55,0,0,1-22.65-15.17,19.32,19.32,0,0,1-1-5.16l-.21-12.3h-4.34l.12,13.69c0,.32.09,1.4.11,1.64a18.25,18.25,0,0,0,2.18,6c3.2,5.55,12.35,14.14,24.27,14.84,3.47.21,8.7-.51,14.9-2.85a49.55,49.55,0,0,0,12.24-7.42S265.56,256,251.7,255Z" fill="#fff"/><path d="M328,258.53c-21.89,0-28.9-14.71-30.67-19.61a11.15,11.15,0,0,1-.59-2.83l.4-66a98.7,98.7,0,0,1,.79-10.05c1.08-3.95,8.51-10.57,8.51-10.57s-3.92,6.58-4.36,9a65.21,65.21,0,0,0-.69,10.45l0,63.33a8.56,8.56,0,0,0,.32,2.36c1.29,4.42,8.16,19.43,24.14,20.5,7.83.52,16.15-.5,18.6-1.19S353,249.8,353,249.8,345.12,258.53,328,258.53Z" fill="#fff"/><path d="M325.84,156.14a10.07,10.07,0,0,1,1.51-2.32c.61-.56,5.81-1.37,8.17-1.09a7.48,7.48,0,0,1,6.21,3.76,10.13,10.13,0,0,1,1.39,4.76v73.81l-.16.86c-.7.75-.93.68-1.88,1.05l-2.21.54-.15-75.29a9.53,9.53,0,0,0-.63-2.6,8.27,8.27,0,0,0-1.37-1.67c-1.14-1.06-4.51-2-7.14-2.1A19.73,19.73,0,0,0,325.84,156.14Z" fill="#fff"/><polygon points="19.09 143.64 0 253.43 4.02 253.43 22.95 143.64 19.09 143.64" fill="#fff"/><polygon points="36.94 212.63 41.54 212.63 36.82 183.31 35.11 196.29 36.94 212.63" fill="#fff"/><polygon points="31.89 232.45 31.32 236.36 42.77 236.29 45.85 258.34 66.06 258.32 66.06 253.85 49.26 253.89 46.34 232.45 31.89 232.45" fill="#fff"/><path d="M160.12,136.1h20.14v92.4a4.44,4.44,0,0,0,1.07,2.94c1.52,1.75,4.62,4.94,8.9,4.54,3.92-.37,5.45-2.54,7.34-5a6.69,6.69,0,0,0,1-4.22V136.1h20.11v91.08a14.37,14.37,0,0,1-2.45,8.06c-4.18,6.18-13.55,17.3-26.85,17.14s-22.51-10.83-26.74-16.88a14.25,14.25,0,0,1-2.56-8.21Z" fill="#fff"/><path d="M271.22,172.76h16.69s6.21-35-24.57-36.66c-18.56-1-31.25,14.49-31.63,26.74-.54,17.26,18.73,35,24.5,40.73s13.24,12.7,13.41,23.76-9.21,10.47-10.08,10.47h0c-6.65,0-11.79-4.65-11.79-10.88V216.69l-16.55.07v11.77c0,5.91,1.48,10.2,5,14.25,4.26,4.85,11.74,9.6,23.33,9.6,11.16,0,27.91-10.2,28.37-26.67.43-15.64-6.73-25.46-11.79-30-11.53-10.35-20.38-19.15-23.42-24.57s-3.25-9.05-3.23-10.1c.06-4.61,4-9.4,11.76-9.24C273.18,152.07,271.22,172.76,271.22,172.76Z" fill="#fff"/><path d="M366.16,230V160.23a10.1,10.1,0,0,0-1.41-5.15c-3.4-5.83-13.07-19.23-30-19.13-16.74.1-26.38,12.6-29.88,18.24a10.08,10.08,0,0,0-1.52,5.35v72.2a10.06,10.06,0,0,0,1.29,5c3,5.34,11.78,16.94,30.94,16.94,16.89,0,26.05-12.95,29.25-18.62A10.07,10.07,0,0,0,366.16,230ZM324,227.59v-65.5a10,10,0,0,1,4.46-8.47,11.27,11.27,0,0,1,6.1-1.85,10.76,10.76,0,0,1,6.12,1.78,10,10,0,0,1,4.44,8.46v65.86a10,10,0,0,1-4.5,8.5,11.16,11.16,0,0,1-6.06,1.76h-.25A10.56,10.56,0,0,1,324,227.59Z" fill="#fff"/><text transform="matrix(0.98, -0.15, 0.15, 0.99, 72.34, 353.49)" font-size="76.38" fill="#fff" font-family="Damion">Ointment</text><rect x="378.77" y="254.57" width="30.92" height="3.96" fill="#fff"/><polygon points="237.75 82.21 237.75 100.89 247.46 104.72 247.46 82.21 237.75 82.21" fill="#fff"/><path d="M154.41,14.59s-2,5.05-2.1,6.63a33.91,33.91,0,0,0,0,6.14c.2.66,23.45,46.48,23.45,46.48l2.84-2.16s-22.93-44.38-23-45.13a51.85,51.85,0,0,1,0-6.48c.2-1.28,1.32-5.48,1.32-5.48Z" fill="#fff"/><path d="M167.28,3.07c-1.83,0-6.82,3-7.59,4s-2,2.38-1.7,3.45,24.67,58.6,24.67,58.6l3.08-1.88s-24.11-55.81-24.32-57-.15-1.44.08-1.79a20.41,20.41,0,0,1,2.64-3,24.59,24.59,0,0,1,3.13-2.12Z" fill="#fff"/><path d="M180.65,0s-5.91.2-6.77.38S170,2.09,170,2.88s21.31,62.73,21.31,62.73L194,65.3S173.7,4.46,173.7,3.66a1.73,1.73,0,0,1,1.24-1.93c1-.3,5.7-1,5.7-1Z" fill="#fff"/><path d="M189.47,1.74s-3.63-.07-4.36.3a2.38,2.38,0,0,0-1,2.07c0,.58,16,60.54,16,60.54l3.19-.38S187.56,4.74,187.49,4.06s-.23-1.46.3-1.63a13,13,0,0,1,1.69-.31Z" fill="#fff"/><path d="M199.36,8.47H197a3,3,0,0,0-.61,1.49c0,.71,12.63,54,12.63,54h2.62s-12.11-53.14-12.15-53.84S199.36,8.47,199.36,8.47Z" fill="#fff"/><path d="M206.31,87.34l.49.64c1.13,1.33,1.51,1.81,2.89,3.27l33.18-16.2-5-1.8-.16-.08Z" fill="#fff"/><polygon points="211.66 95.1 215.14 98.95 247.46 82.22 242.11 79.75 211.66 95.1" fill="#fff"/><polygon points="172.86 84.47 172.28 89.72 209.96 91.17 206.58 87.26 172.86 84.47" fill="#fff"/><path d="M246,79.65l-1.66-16.13L249,60.81l1.25-.12,1.63,15.93.66-.07S253.76,68.28,254,66s.67-7,.67-7l6.45-3.44-.46-4.42S249,55.73,245.86,56.42,234,57.68,232.38,57.8c-.79.08-19,.36-19,.36l.84,5,22.14,0,1.16,10L242.41,75l-.3,4.73,5.2,2.49.15,0" fill="#fff"/><polygon points="200.25 90.34 200.25 109.02 209.96 112.86 209.96 90.34 200.25 90.34" fill="#fff" stroke="#fff" stroke-miterlimit="10" stroke-width="0.5"/><path d="M202.81,98c-1-2.53-2.75-7-4.05-10.38-4.56.93-12,2.22-12,2.22s-10.85,1.8-14.07,2.71S161.12,97,160,97.5l-7,3.46v.91l12.66,3.75a6.28,6.28,0,0,0,1.78.26h2.05a4.32,4.32,0,0,0,.95-.1c2.38-.48,13.2-2.69,15.41-3.08,2.47-.43,13.47-2.74,13.47-2.74S202.65,98.37,202.81,98Z" fill="#fff"/><path d="M191.1,71.72c.63.09,4.76.56,7.19.59a23,23,0,0,0,5.39-.27c.93-.31.68-.68.55-.91s-1.22-.5-2.89-.72-4-.45-5.34-.62a31.91,31.91,0,0,1-3.45-.61,2.07,2.07,0,0,1-.77-.32,7.88,7.88,0,0,1-.22.88,4.27,4.27,0,0,0-.45.91A7.78,7.78,0,0,0,191.1,71.72Z" fill="#fff"/><path d="M197.82,85.22c1.17,0,7.27.14,8.55,0s2.65-.39,3.86-.48a6.32,6.32,0,0,0,2.88-1c1.21-.78,4.45-.88,9.7-5.71.85-1.46,7.33-1.75,9.43-3.76,0,0,1.73-1.09,1.78-2,0-.71-.13-3.51-.2-4.31a1,1,0,0,0-.19-.5c-.22-.29-.81,0-.83,0-1.67,1.16-1.24,2.68-11.08,3.43-4.19,4.06-10.1,4.71-9.52,5,0,0-.61.35-.48,1.55a15.85,15.85,0,0,1-.06,3.07c-.06.85-.18,2.7-.63,3.15a8.2,8.2,0,0,1-3.23,1.22C207,84.82,197.82,85.22,197.82,85.22Z" fill="#fff" stroke="#fff" stroke-miterlimit="10" stroke-width="0.5"/><path d="M180.24,72.83c-.55.4-1.53,1.27-1.61,2.07a34.23,34.23,0,0,0,.35,5c0,1,.27,3.42.8,3.95s3.06.64,4.86.71,6.54.72,8.18.74c1,0,4.28-.09,5-.11" fill="none" stroke="#fff" stroke-miterlimit="10" stroke-width="0.5"/><path d="M233.63,67.39c-1-2.82-11.66-3.77-21.81-1.39-1.48.27-5.55-.22-9.57-.07-6,.23-11.49.84-10.33,3.29" fill="none" stroke="#fff" stroke-miterlimit="10" stroke-width="0.5"/><path d="M222.07,71.24a11.61,11.61,0,0,0-3.07-1,18.81,18.81,0,0,0-3.27-.36,28.23,28.23,0,0,0-3.3.2l-3.3.35,3.29-.47a26.13,26.13,0,0,1,3.31-.33,18.72,18.72,0,0,1,3.34.25,11.67,11.67,0,0,1,3.23,1Z" fill="#fff"/><path d="M198,72.06c-2,0-6.79-.35-7.22-.65-4.5-1.26-17.21,2.35-7.69,3.07,5.72,1.22,6.44,1.61,13.61.64,5.6-.65,9.19-2.19,15.46.61" fill="none" stroke="#fff" stroke-miterlimit="10" stroke-width="0.5"/><text transform="translate(96.45 75.73)" font-size="15" fill="#fff" font-family="Merriweather-Regular, Merriweather" letter-spacing="0.09em">MULTI</text><text transform="translate(268.09 73.84)" font-size="15" fill="#fff" font-family="Merriweather-Regular, Merriweather" letter-spacing="0.09em">SYMPTOM</text></svg>