<svg id="Layer_1" data-name="Layer 1" xmlns="http://www.w3.org/2000/svg" width="0.77in" height="0.17in" viewBox="0 0 55.48 12.03"><path d="M16.51,11.43h2.1L16.51.13H14.22l-2,11.3H14l.34-2.29H16.2Zm-1.8-3.79.52-3.89h.28L16,7.64Z" fill="#fff"/><polygon points="48.92 0 51.16 0 51.17 9.23 55.48 9.23 55.48 11.55 48.92 11.55 48.92 0" fill="#fff"/><polygon points="22.48 0 19.86 0 19.86 11.53 21.92 11.53 21.92 4.47 23.59 11.53 25.78 11.53 25.78 0 23.83 0 23.86 4.61 22.48 0" fill="#fff"/><polygon points="19.25 0.76 19.65 0.76 19.64 11.64 20.98 11.64 20.98 12.01 19.25 12.01 19.25 0.76" fill="#fff"/><polygon points="21.92 5.47 21.92 7.13 23.03 12.01 24.04 12.01 24.04 11.65 23.39 11.65 21.92 5.47" fill="#fff"/><polygon points="23.19 2.37 23.61 3.76 23.6 0.76 23.19 0.76 23.19 2.37" fill="#fff"/><path d="M30.1,12a4.76,4.76,0,0,1-3.68-2.18.78.78,0,0,1,0-.16l0-8.9h.45l0,8.68a.43.43,0,0,0,0,.11,4.23,4.23,0,0,0,2.89,2.12A2.64,2.64,0,0,0,32,11s-.07.08-.08.09A2.29,2.29,0,0,1,30.1,12Z" fill="#fff"/><path d="M30.19.77v9.1h0a.53.53,0,0,0,.36-.17l0-.06V.77Z" fill="#fff"/><rect x="48.23" y="0.77" width="0.46" height="11.26" fill="#fff"/><path d="M39.2,3.89v.35H37.43V2.87a.84.84,0,0,0-.07-.35A.76.76,0,0,0,37,2.2a2.31,2.31,0,0,0-.89-.1.61.61,0,0,1,.09-.22c.06-.1.09-.13.13-.15a2.3,2.3,0,0,1,.68.06,1.1,1.1,0,0,1,.51.27,1.17,1.17,0,0,1,.25.54c0,.29,0,1.28,0,1.28Z" fill="#fff"/><path d="M34.87.79a3.32,3.32,0,0,0-1.19,1.76A3.87,3.87,0,0,0,34.35,5,25.63,25.63,0,0,0,36.1,7.19,3.93,3.93,0,0,1,37,8.61,6.59,6.59,0,0,1,37.17,10l.07,0c.12,0,.06,0,.17-.07l.29-.2a4,4,0,0,0-.45-1.93A11.82,11.82,0,0,0,36.1,6.5c-.39-.42-.91-1-1.39-1.63a4.7,4.7,0,0,1-.63-1.49,3.35,3.35,0,0,1,0-1.3A5.22,5.22,0,0,1,34.87.79Z" fill="#fff"/><path d="M36.22,11.68A2.62,2.62,0,0,1,34,10.19a1.86,1.86,0,0,1-.09-.5l0-1.21h-.43V9.82a.92.92,0,0,1,0,.16,1.78,1.78,0,0,0,.22.59A3.14,3.14,0,0,0,36.07,12a3.73,3.73,0,0,0,1.46-.28,4.63,4.63,0,0,0,1.2-.73A4.48,4.48,0,0,1,36.22,11.68Z" fill="#fff"/><path d="M43.7,12a3,3,0,0,1-3-1.92,1.4,1.4,0,0,1-.06-.28l0-6.48c0-.12,0-.87.08-1a3.62,3.62,0,0,1,.83-1,4.73,4.73,0,0,0-.42.89,5.9,5.9,0,0,0-.07,1V9.45a.91.91,0,0,0,0,.23,2.84,2.84,0,0,0,2.37,2,7,7,0,0,0,1.83-.12,5.67,5.67,0,0,0,.84-.4A3.36,3.36,0,0,1,43.7,12Z" fill="#fff"/><path d="M43.49,2a1.15,1.15,0,0,1,.15-.23,2.13,2.13,0,0,1,.8-.1.72.72,0,0,1,.61.37.9.9,0,0,1,.14.46V9.73l0,.08c-.06.08-.09.07-.18.1l-.22.06V2.58a1.16,1.16,0,0,0-.06-.26.94.94,0,0,0-.14-.16,1.38,1.38,0,0,0-.7-.21A2.75,2.75,0,0,0,43.49,2Z" fill="#fff"/><polygon points="13.39 0.76 11.51 11.53 11.91 11.53 13.77 0.76 13.39 0.76" fill="#fff"/><polygon points="15.14 7.53 15.59 7.53 15.13 4.65 14.96 5.92 15.14 7.53" fill="#fff"/><polygon points="14.64 9.47 14.59 9.86 15.71 9.85 16.01 12.01 18 12.01 18 11.57 16.35 11.57 16.06 9.47 14.64 9.47" fill="#fff"/><path d="M27.23,0h2V9.08a.43.43,0,0,0,.1.29,1.08,1.08,0,0,0,.87.45.94.94,0,0,0,.72-.49A.64.64,0,0,0,31,8.91V0h2V9a1.36,1.36,0,0,1-.24.79,3.41,3.41,0,0,1-2.64,1.69,3.51,3.51,0,0,1-2.62-1.66A1.39,1.39,0,0,1,27.23,9Z" fill="#fff"/><path d="M38.13,3.61h1.64S40.38.17,37.36,0a3,3,0,0,0-3.11,2.63c0,1.69,1.84,3.44,2.41,4A3.36,3.36,0,0,1,38,9a.91.91,0,0,1-1,1h0a1.09,1.09,0,0,1-1.15-1.07v-1H34.2V9.09a2,2,0,0,0,.5,1.4,2.94,2.94,0,0,0,2.29.94,2.91,2.91,0,0,0,2.78-2.62,3.72,3.72,0,0,0-1.16-2.94,13.18,13.18,0,0,1-2.3-2.42,2.11,2.11,0,0,1-.31-1c0-.45.39-.92,1.15-.9C38.32,1.58,38.13,3.61,38.13,3.61Z" fill="#fff"/><path d="M47.45,9.23V2.38a1,1,0,0,0-.14-.5A3.51,3.51,0,0,0,44.37,0a3.55,3.55,0,0,0-2.93,1.79,1,1,0,0,0-.15.53V9.4a1,1,0,0,0,.12.49,3.37,3.37,0,0,0,5.91-.17A1,1,0,0,0,47.45,9.23ZM43.31,9V2.57a1,1,0,0,1,.44-.84,1.18,1.18,0,0,1,.6-.18,1.12,1.12,0,0,1,.6.18,1,1,0,0,1,.44.83V9a1,1,0,0,1-.45.84,1.14,1.14,0,0,1-.59.17h0A1,1,0,0,1,43.31,9Z" fill="#fff"/><rect x="48.69" y="11.64" width="3.03" height="0.39" fill="#fff"/><polygon points="11.54 6.77 11.54 8.6 12.5 8.98 12.5 6.77 11.54 6.77" fill="#fff"/><path d="M.22,2A5.59,5.59,0,0,0,0,2.63a4,4,0,0,0,0,.6C0,3.3,2.32,7.8,2.32,7.8l.28-.22S.34,3.23.34,3.16a4.55,4.55,0,0,1,0-.64C.36,2.39.47,2,.47,2Z" fill="#fff"/><path d="M1.48.85a1.8,1.8,0,0,0-.74.39c-.08.1-.19.24-.17.34S3,7.33,3,7.33l.31-.18S.93,1.67.91,1.56s0-.14,0-.18a2.27,2.27,0,0,1,.26-.3,2.07,2.07,0,0,1,.3-.2Z" fill="#fff"/><path d="M2.8.55s-.58,0-.67,0-.38.16-.38.24S3.85,7,3.85,7l.26,0s-2-6-2-6A.17.17,0,0,1,2.23.72c.11,0,.56-.1.56-.1Z" fill="#fff"/><path d="M3.66.72a1.75,1.75,0,0,0-.43,0,.21.21,0,0,0-.09.2C3.14,1,4.7,6.89,4.7,6.89l.32,0S3.47,1,3.47,1s0-.15,0-.16a.8.8,0,0,1,.16,0Z" fill="#fff"/><path d="M4.63,1.38H4.4a.31.31,0,0,0-.06.15c0,.07,1.24,5.3,1.24,5.3h.25S4.64,1.61,4.64,1.54,4.63,1.38,4.63,1.38Z" fill="#fff"/><path d="M5.31,9.12l.05.06a4,4,0,0,0,.29.32L8.9,7.91l-.49-.17h0Z" fill="#fff"/><polygon points="5.84 9.88 6.18 10.26 9.35 8.62 8.83 8.38 5.84 9.88" fill="#fff"/><polygon points="2.03 8.84 1.98 9.35 5.67 9.5 5.34 9.11 2.03 8.84" fill="#fff"/><path d="M9.21,8.37,9.05,6.78l.45-.26h.12l.17,1.56h.06S10,7.25,10,7s.07-.69.07-.69L10.69,6l0-.43S9.51,6,9.2,6.09,8,6.21,7.87,6.22L6,6.26l.08.49H8.27l.11,1,.48.17,0,.47.51.24h0" fill="#fff"/><polygon points="4.72 9.42 4.72 11.25 5.67 11.63 5.67 9.42 4.72 9.42" fill="#fff" stroke="#fff" stroke-miterlimit="10" stroke-width="0.5"/><path d="M5,10.16l-.4-1L3.4,9.36S2.33,9.54,2,9.63a12.18,12.18,0,0,0-1.25.49l-.69.34v.09l1.24.37.17,0h.3l1.51-.3,1.32-.27A2.18,2.18,0,0,0,5,10.16Z" fill="#fff"/><path d="M3.82,7.59c.06,0,.47,0,.71.06a2.35,2.35,0,0,0,.53,0c.09,0,.06-.07.05-.09a.66.66,0,0,0-.28-.07L4.3,7.4,4,7.34l-.07,0,0,.08a.73.73,0,0,0-.05.09Z" fill="#fff"/><path d="M4.48,8.91a7.85,7.85,0,0,0,.84,0c.14,0,.26,0,.38,0A.84.84,0,0,0,6,8.77a2.58,2.58,0,0,0,.95-.56c.09-.15.72-.18.93-.37,0,0,.17-.11.17-.2a3.17,3.17,0,0,0,0-.43.09.09,0,0,0,0,0s-.08,0-.09,0c-.16.11-.12.26-1.08.34A2.6,2.6,0,0,1,5.89,8a.14.14,0,0,0,0,.15,2.91,2.91,0,0,1,0,.31.84.84,0,0,1-.06.3.71.71,0,0,1-.32.12Z" fill="#fff" stroke="#fff" stroke-miterlimit="10" stroke-width="0.5"/><path d="M2.76,7.7a.35.35,0,0,0-.16.2,3,3,0,0,0,0,.49,1,1,0,0,0,.08.39,1.31,1.31,0,0,0,.48.07c.17,0,.64.07.8.07h.49" fill="none" stroke="#fff" stroke-miterlimit="10" stroke-width="0.5"/><path d="M8,7.16C7.9,6.89,6.85,6.79,5.85,7c-.14,0-.54,0-.93,0-.59,0-1.13.08-1,.32" fill="none" stroke="#fff" stroke-miterlimit="10" stroke-width="0.5"/><path d="M6.76,7.74a1.24,1.24,0,0,0-.52-.22c-.21,0-.43,0-.65-.06A2.24,2.24,0,0,1,7,7.3Z" fill="#fff"/><path d="M4.5,7.62a3.89,3.89,0,0,1-.71-.06c-.44-.13-1.69.23-.75.3a2.64,2.64,0,0,0,1.33.06A2.41,2.41,0,0,1,5.89,8" fill="none" stroke="#fff" stroke-miterlimit="10" stroke-width="0.5"/></svg>